<svg width="102" height="131" viewBox="0 0 102 131" fill="none" xmlns="http://www.w3.org/2000/svg">
<g opacity="0.9">
<path d="M84.5442 15.3645C78.8074 13.8113 73.2025 11.7925 67.7843 9.32818C62.4537 6.98196 57.3081 4.22553 52.3925 1.08259L51 0.209473L49.6326 1.10855C44.7171 4.25105 39.5706 7.00757 34.2409 9.35379C28.8131 11.8108 23.2004 13.8208 17.4557 15.3645L15.5571 15.8525V37.2754C15.5571 71.6713 49.8097 84.5401 50.1388 84.6686L51 84.9768L51.8603 84.6686C52.2146 84.6686 86.4429 71.6964 86.4429 37.2754V15.8525L84.5442 15.3645Z" fill="url(#paint0_linear_402_511)"/>
<path d="M84.5442 15.3645C78.8074 13.8113 73.2025 11.7925 67.7843 9.32818C62.4537 6.98196 57.3081 4.22553 52.3925 1.08259L51 0.209473L49.6326 1.10855C44.7171 4.25105 39.5706 7.00757 34.2409 9.35379C28.8131 11.8108 23.2004 13.8208 17.4557 15.3645L15.5571 15.8525V37.2754C15.5571 71.6713 49.8097 84.5401 50.1388 84.6686L51 84.9768L51.8603 84.6686C52.2146 84.6686 86.4429 71.6964 86.4429 37.2754V15.8525L84.5442 15.3645Z" fill="white"/>
</g>
<path d="M75.0474 26.9692C83.4738 30.6754 92.1876 33.7166 101.105 36.0641V64.5409C101.105 88.4242 88.8816 104.91 76.3019 115.587C70.0068 120.927 63.6796 124.758 58.8942 127.249C56.5059 128.494 54.5169 129.396 53.1305 129.979C52.4898 130.248 51.9862 130.447 51.6372 130.577H51.6155L51.0035 130.789C49.5232 130.23 37.5816 125.551 25.7103 115.498C13.1236 104.839 0.895203 88.4007 0.895203 64.5409V36.065C9.82369 33.7314 18.5488 30.7032 26.9882 27.0083C35.32 23.4601 43.3636 19.2929 51.0504 14.543C58.7171 19.2764 66.7399 23.4306 75.0474 26.9692Z" fill="black"/>
<path d="M75.0474 26.9692C83.4738 30.6754 92.1876 33.7166 101.105 36.0641V64.5409C101.105 88.4242 88.8816 104.91 76.3019 115.587C70.0068 120.927 63.6796 124.758 58.8942 127.249C56.5059 128.494 54.5169 129.396 53.1305 129.979C52.4898 130.248 51.9862 130.447 51.6372 130.577H51.6155L51.0035 130.789C49.5232 130.23 37.5816 125.551 25.7103 115.498C13.1236 104.839 0.895203 88.4007 0.895203 64.5409V36.065C9.82369 33.7314 18.5488 30.7032 26.9882 27.0083C35.32 23.4601 43.3636 19.2929 51.0504 14.543C58.7171 19.2764 66.7399 23.4306 75.0474 26.9692Z" fill="url(#paint1_linear_402_511)"/>
<defs>
<linearGradient id="paint0_linear_402_511" x1="79.2232" y1="3.42021" x2="19.9057" y2="86.2113" gradientUnits="userSpaceOnUse">
<stop stop-color="#FFC700"/>
<stop offset="1" stop-color="#E43086"/>
</linearGradient>
<linearGradient id="paint1_linear_402_511" x1="94.2234" y1="14.3846" x2="7.32165" y2="139.769" gradientUnits="userSpaceOnUse">
<stop stop-color="#FFC700"/>
<stop offset="1" stop-color="#E43086"/>
</linearGradient>
</defs>
</svg>
