<svg width="98" height="88" viewBox="0 0 98 88" fill="none" xmlns="http://www.w3.org/2000/svg">
<g filter="url(#filter0_d_91_478)">
<path d="M72.9012 44C72.9012 30.7452 62.1782 20 48.9506 20C35.7231 20 25 30.7452 25 44C25 57.2548 35.7231 68 48.9506 68C62.1782 68 72.9012 57.2548 72.9012 44Z" fill="black"/>
<path d="M48.9506 65.2629C60.6696 65.2629 70.1698 55.7432 70.1698 44C70.1698 32.2568 60.6696 22.7371 48.9506 22.7371C37.2316 22.7371 27.7314 32.2568 27.7314 44C27.7314 55.7432 37.2316 65.2629 48.9506 65.2629Z" stroke="url(#paint0_linear_91_478)"/>
<g opacity="0.9">
<path d="M54.9017 35.5315C53.884 35.2553 52.8897 34.8964 51.9284 34.4583C50.9827 34.0412 50.0698 33.5512 49.1976 32.9925L48.9506 32.8372L48.708 32.9971C47.8359 33.5557 46.923 34.0458 45.9773 34.4629C45.0144 34.8997 44.0186 35.257 42.9995 35.5315L42.6626 35.6183V39.4268C42.6626 45.5415 48.7395 47.8294 48.7979 47.8522L48.9506 47.907L49.1033 47.8522C49.1662 47.8522 55.2386 45.546 55.2386 39.4268V35.6183L54.9017 35.5315Z" fill="url(#paint1_linear_91_478)"/>
<path d="M54.9017 35.5315C53.884 35.2553 52.8897 34.8964 51.9284 34.4583C50.9827 34.0412 50.0698 33.5512 49.1976 32.9925L48.9506 32.8372L48.708 32.9971C47.8359 33.5557 46.923 34.0458 45.9773 34.4629C45.0144 34.8997 44.0186 35.257 42.9995 35.5315L42.6626 35.6183V39.4268C42.6626 45.5415 48.7395 47.8294 48.7979 47.8522L48.9506 47.907L49.1033 47.8522C49.1662 47.8522 55.2386 45.546 55.2386 39.4268V35.6183L54.9017 35.5315Z" fill="white"/>
</g>
<path d="M53.2169 37.5945C54.7119 38.2534 56.2578 38.7941 57.8399 39.2114V44.274C57.8399 48.5199 55.6713 51.4507 53.4394 53.3487C52.3227 54.2983 51.2002 54.9792 50.3512 55.4222C49.9274 55.6433 49.5746 55.8036 49.3286 55.9074C49.2149 55.9553 49.1255 55.9906 49.0637 56.0138H49.0599L48.9513 56.0515C48.6886 55.952 46.5701 55.1203 44.4639 53.3329C42.2309 51.438 40.0614 48.5158 40.0614 44.274V39.2115C41.6454 38.7967 43.1934 38.2584 44.6907 37.6016C46.1688 36.9707 47.5958 36.2299 48.9596 35.3854C50.3198 36.227 51.743 36.9654 53.2169 37.5945Z" fill="black"/>
<path d="M53.2169 37.5945C54.7119 38.2534 56.2578 38.7941 57.8399 39.2114V44.274C57.8399 48.5199 55.6713 51.4507 53.4394 53.3487C52.3227 54.2983 51.2002 54.9792 50.3512 55.4222C49.9274 55.6433 49.5746 55.8036 49.3286 55.9074C49.2149 55.9553 49.1255 55.9906 49.0637 56.0138H49.0599L48.9513 56.0515C48.6886 55.952 46.5701 55.1203 44.4639 53.3329C42.2309 51.438 40.0614 48.5158 40.0614 44.274V39.2115C41.6454 38.7967 43.1934 38.2584 44.6907 37.6016C46.1688 36.9707 47.5958 36.2299 48.9596 35.3854C50.3198 36.227 51.743 36.9654 53.2169 37.5945Z" fill="url(#paint2_linear_91_478)"/>
<path d="M53.2169 37.5945C54.7119 38.2534 56.2578 38.7941 57.8399 39.2114V44.274C57.8399 48.5199 55.6713 51.4507 53.4394 53.3487C52.3227 54.2983 51.2002 54.9792 50.3512 55.4222C49.9274 55.6433 49.5746 55.8036 49.3286 55.9074C49.2149 55.9553 49.1255 55.9906 49.0637 56.0138H49.0599L48.9513 56.0515C48.6886 55.952 46.5701 55.1203 44.4639 53.3329C42.2309 51.438 40.0614 48.5158 40.0614 44.274V39.2115C41.6454 38.7967 43.1934 38.2584 44.6907 37.6016C46.1688 36.9707 47.5958 36.2299 48.9596 35.3854C50.3198 36.227 51.743 36.9654 53.2169 37.5945Z" stroke="black"/>
</g>
<defs>
<filter id="filter0_d_91_478" x="0" y="-5" width="97.9012" height="98" filterUnits="userSpaceOnUse" color-interpolation-filters="sRGB">
<feFlood flood-opacity="0" result="BackgroundImageFix"/>
<feColorMatrix in="SourceAlpha" type="matrix" values="0 0 0 0 0 0 0 0 0 0 0 0 0 0 0 0 0 0 127 0" result="hardAlpha"/>
<feOffset/>
<feGaussianBlur stdDeviation="12.5"/>
<feComposite in2="hardAlpha" operator="out"/>
<feColorMatrix type="matrix" values="0 0 0 0 0.992157 0 0 0 0 0.741177 0 0 0 0 0.0313725 0 0 0 0.15 0"/>
<feBlend mode="normal" in2="BackgroundImageFix" result="effect1_dropShadow_91_478"/>
<feBlend mode="normal" in="SourceGraphic" in2="effect1_dropShadow_91_478" result="shape"/>
</filter>
<linearGradient id="paint0_linear_91_478" x1="62.6099" y1="20.5625" x2="30.5171" y2="73.1911" gradientUnits="userSpaceOnUse">
<stop stop-color="#EF6E4F"/>
<stop offset="1" stop-color="#FDBD08"/>
</linearGradient>
<linearGradient id="paint1_linear_91_478" x1="53.9577" y1="33.408" x2="43.4055" y2="48.1059" gradientUnits="userSpaceOnUse">
<stop stop-color="#FFC700"/>
<stop offset="1" stop-color="#E43086"/>
</linearGradient>
<linearGradient id="paint2_linear_91_478" x1="56.619" y1="35.3573" x2="41.1585" y2="57.618" gradientUnits="userSpaceOnUse">
<stop stop-color="#FFC700"/>
<stop offset="1" stop-color="#E43086"/>
</linearGradient>
</defs>
</svg>
