<svg width="25" height="24" viewBox="0 0 25 24" fill="none" xmlns="http://www.w3.org/2000/svg">
<path opacity="0.8" d="M8.5 4.25C8.08579 4.25 7.75 4.58579 7.75 5C7.75 5.41421 8.08579 5.75 8.5 5.75V4.25ZM20.5 18.25H8V19.75H20.5V18.25ZM8 12.75H17V11.25H8V12.75ZM17 4.25H8.5V5.75H17V4.25ZM21.25 8.5C21.25 6.15279 19.3472 4.25 17 4.25V5.75C18.5188 5.75 19.75 6.98122 19.75 8.5H21.25ZM17 12.75C19.3472 12.75 21.25 10.8472 21.25 8.5H19.75C19.75 10.0188 18.5188 11.25 17 11.25V12.75ZM5.25 15.5C5.25 13.9812 6.48122 12.75 8 12.75V11.25C5.65279 11.25 3.75 13.1528 3.75 15.5H5.25ZM8 18.25C6.48122 18.25 5.25 17.0188 5.25 15.5H3.75C3.75 17.8472 5.65279 19.75 8 19.75V18.25Z" fill="white"/>
<path d="M18.5 17L20.5 19L18.5 21" stroke="white" stroke-width="1.5" stroke-linecap="round" stroke-linejoin="round"/>
<circle cx="6.5" cy="5" r="2" stroke="white" stroke-width="1.5"/>
</svg>
