<svg width="33" height="33" viewBox="0 0 33 33" fill="none"
                                    xmlns="http://www.w3.org/2000/svg">
                                    <g clip-path="url(#clip0_357_1338)">
                                        <path
                                            d="M21.9653 12.645C22.2531 13.2716 22.5742 13.8825 22.8596 14.5101C23.4089 15.7181 23.8261 16.9936 23.9994 18.3091C24.1727 19.6247 24.0973 20.9832 23.6864 22.2446C23.2218 23.6684 22.3397 24.9352 21.2589 25.972C19.9804 27.1985 18.3392 28.1441 16.5688 28.2139C15.4152 28.2593 14.2668 27.9295 13.2453 27.3918C12.3868 26.94 11.603 26.3378 10.9777 25.5961C10.3524 24.8544 9.88811 23.9713 9.67311 23.0252C9.40836 21.8602 9.52819 20.6235 9.92885 19.498C10.2154 18.6932 10.6402 17.9438 10.9426 17.1448C11.2731 16.2717 11.4576 15.3394 11.8955 14.5149C12.2923 13.7673 12.8875 13.1288 13.2037 12.3437C13.3926 11.8748 13.4745 11.3712 13.5964 10.8806C13.7184 10.3899 13.8891 9.89578 14.2212 9.51464C14.6215 9.05539 15.2236 8.80645 15.8286 8.73655C16.4337 8.66665 17.0462 8.76103 17.64 8.8965C18.1128 9.00431 18.5798 9.13819 19.0367 9.3007C19.4267 9.43944 19.8131 9.60098 20.1503 9.84099C20.6098 10.168 20.9598 10.6284 21.2386 11.1186C21.5174 11.6089 21.7308 12.1327 21.9662 12.6451L21.9653 12.645Z"
                                            fill="#020204" />
                                        <path
                                            d="M16.8852 28.2253C17.3712 28.2536 17.8564 28.3008 18.338 28.3735C18.7614 28.4379 19.1819 28.5208 19.5981 28.622C20.25 28.78 20.8996 28.9815 21.5702 29.0006C21.7466 29.0056 21.9236 28.9978 22.0968 28.9594C22.27 28.9211 22.4363 28.8512 22.5745 28.7411C22.7804 28.577 22.9103 28.3295 22.9595 28.0707C23.0087 27.8118 22.9779 27.5426 22.902 27.2904C22.7505 26.7861 22.4249 26.3559 22.1565 25.9033C22.0023 25.6442 21.8649 25.3749 21.6978 25.1239C21.5308 24.873 21.3311 24.6379 21.0775 24.4744C20.7268 24.2484 20.2921 24.1747 19.877 24.216C19.4619 24.2574 19.064 24.4073 18.6936 24.5992C18.1743 24.868 17.6855 25.2372 17.4025 25.7489C17.304 25.9269 17.2324 26.1183 17.1487 26.3038C17.065 26.4894 16.967 26.672 16.8253 26.818C16.6671 26.9807 16.4619 27.0905 16.2983 27.2477C16.2166 27.3272 16.145 27.4178 16.1039 27.5232C16.0628 27.6287 16.0516 27.7491 16.0898 27.8559C16.116 27.9293 16.164 27.9936 16.2232 28.0442C16.2824 28.0947 16.3524 28.1317 16.4258 28.1573C16.5725 28.2089 16.7307 28.2165 16.886 28.2255L16.8852 28.2253Z"
                                            fill="#020204" />
                                        <path
                                            d="M15.4404 28.1935C15.0353 28.2029 14.6345 28.2754 14.2386 28.3574C13.8593 28.4358 13.4818 28.5231 13.1071 28.6214C12.4749 28.7874 11.842 28.9861 11.1885 29C11.0165 29.0035 10.8433 28.9943 10.6757 28.9555C10.508 28.9167 10.3458 28.8476 10.2113 28.7404C10.0058 28.5765 9.87521 28.3295 9.82687 28.0712C9.77853 27.813 9.80805 27.5442 9.88299 27.2924C10.0329 26.7887 10.3545 26.3574 10.6179 25.9027C10.7675 25.6442 10.8995 25.3755 11.0613 25.1244C11.2231 24.8733 11.418 24.6377 11.6675 24.4736C12.0076 24.2501 12.4316 24.1743 12.8366 24.2142C13.2416 24.254 13.6297 24.4033 13.9869 24.5984C14.4912 24.8739 14.9517 25.2529 15.2432 25.7472C15.4478 26.0945 15.5657 26.4917 15.8049 26.8163C15.9336 26.9911 16.0965 27.142 16.2025 27.3309C16.2561 27.4253 16.2953 27.5293 16.3044 27.6375C16.3135 27.7458 16.2912 27.8583 16.2302 27.9481C16.19 28.0076 16.1341 28.0557 16.0717 28.0911C16.0093 28.1266 15.9405 28.1499 15.8703 28.1645C15.7289 28.1938 15.5848 28.1892 15.4412 28.1927L15.4404 28.1935ZM13.1769 11.3252C13.12 10.6404 13.1328 9.9517 13.108 9.26489C13.0834 8.60451 13.0227 7.94448 13.0448 7.28401C13.0675 6.61241 13.18 5.93196 13.4791 5.3284C13.7781 4.72484 14.2638 4.21425 14.8563 3.89488C15.413 3.59443 16.0551 3.46603 16.6886 3.47292C17.5475 3.48229 18.4086 3.74174 19.104 4.24562C19.5401 4.56127 19.9069 4.96821 20.1962 5.42216C20.443 5.80966 20.6348 6.23286 20.7551 6.677C21.0019 7.5872 20.9433 8.54583 20.9914 9.48679C21.0369 10.3786 21.1796 11.2683 21.131 12.16C21.1204 12.3544 21.0996 12.5518 21.0132 12.7255C20.9291 12.8947 20.7863 13.0308 20.6222 13.1247C20.4581 13.2185 20.2734 13.2719 20.0867 13.3007C19.7132 13.3583 19.3311 13.3203 18.9549 13.3552C18.4087 13.4059 17.8878 13.6084 17.3458 13.6923C16.7007 13.7921 16.0418 13.7214 15.3886 13.6953C15.1271 13.6848 14.8646 13.6816 14.605 13.649C14.3454 13.6164 14.0863 13.5535 13.8553 13.4303C13.7139 13.3545 13.5819 13.2558 13.4757 13.1343C13.3695 13.0128 13.2884 12.8692 13.248 12.7122C13.1873 12.4777 13.2193 12.2309 13.2202 11.9887C13.221 11.7672 13.1952 11.5466 13.176 11.3259L13.1769 11.3252Z"
                                            fill="#020204" />
                                        <path
                                            d="M14.2048 11.0618C14.1123 11.1775 14.0521 11.3169 14.0157 11.4607C13.9792 11.6044 13.966 11.753 13.9602 11.9011C13.9489 12.1974 13.967 12.4994 13.8887 12.7853C13.8047 13.0911 13.6168 13.3558 13.4329 13.614C13.1143 14.0612 12.7922 14.5198 12.6352 15.0458C12.54 15.3644 12.5083 15.7018 12.5425 16.0324C12.186 16.5561 11.8771 17.1123 11.6215 17.692C11.2339 18.5706 10.9679 19.506 10.8743 20.4615C10.7598 21.6317 10.9095 22.8353 11.3716 23.9165C11.7056 24.6982 12.2038 25.4138 12.8461 25.9708C13.1726 26.254 13.5354 26.4957 13.9242 26.6863C15.2685 27.347 16.9299 27.3482 18.2519 26.6439C18.9428 26.2757 19.526 25.7374 20.0882 25.1927C20.4268 24.8647 20.7637 24.5289 21.022 24.1344C21.5192 23.3751 21.6924 22.4522 21.8001 21.551C21.9883 19.9751 21.9943 18.3105 21.3034 16.8818C21.0649 16.3889 20.7492 15.9372 20.3684 15.5438C20.2672 14.8563 20.0674 14.1831 19.777 13.5517C19.5676 13.0962 19.3115 12.6626 19.1169 12.2006C19.037 12.0109 18.9667 11.8166 18.879 11.6309C18.7912 11.4451 18.681 11.2663 18.5322 11.1241C18.3799 10.9783 18.1902 10.875 17.99 10.8089C17.7897 10.7428 17.579 10.7129 17.3687 10.7023C16.9476 10.6811 16.5257 10.7361 16.1045 10.7194C15.7692 10.7062 15.4349 10.6473 15.0998 10.6671C14.9322 10.677 14.7648 10.7069 14.6093 10.7701C14.4538 10.8332 14.3105 10.9306 14.2058 11.0617L14.2048 11.0618Z"
                                            fill="#FDFDFB" />
                                        <g opacity="0.3" filter="url(#filter0_f_357_1338)">
                                            <path
                                                d="M13.5788 11.3892C13.8711 11.5699 14.1334 11.7916 14.3538 12.0446C14.5581 12.2793 14.732 12.5455 14.9988 12.7194C15.1873 12.8421 15.4137 12.9113 15.6434 12.9323C15.9131 12.957 16.186 12.9171 16.446 12.8467C16.687 12.7814 16.9199 12.6896 17.1337 12.5683C17.54 12.3374 17.8795 11.9991 18.3266 11.8474C18.4245 11.8142 18.5264 11.7905 18.6207 11.7497C18.7149 11.7088 18.8036 11.6476 18.8486 11.561C18.8928 11.4778 18.8902 11.3818 18.9043 11.2904C18.9193 11.1927 18.9533 11.0981 18.9718 11.0009C18.9904 10.9037 18.9926 10.7997 18.9471 10.7103C18.9093 10.6362 18.8406 10.5778 18.7615 10.5406C18.6824 10.5034 18.5936 10.4866 18.5049 10.4825C18.3276 10.4743 18.1525 10.5163 17.9757 10.5312C17.7416 10.5509 17.5058 10.523 17.2708 10.5295C16.9785 10.5377 16.6904 10.5987 16.3983 10.6113C16.0649 10.6258 15.7325 10.5773 15.399 10.5666C15.2548 10.5618 15.1096 10.5641 14.9674 10.5872C14.8252 10.6102 14.6857 10.6541 14.5653 10.7277C14.4487 10.799 14.3535 10.8959 14.2466 10.9792C14.1931 11.0208 14.1363 11.0593 14.0739 11.0886C14.0115 11.118 13.9431 11.1379 13.8733 11.141C13.8373 11.1426 13.801 11.1398 13.7655 11.1448C13.7357 11.1494 13.7072 11.1594 13.6816 11.1743C13.656 11.1891 13.6339 11.2084 13.6164 11.2311C13.599 11.2539 13.5867 11.2796 13.5801 11.3067C13.5735 11.3339 13.5728 11.362 13.578 11.3894L13.5788 11.3892Z"
                                                fill="black" />
                                        </g>
                                        <path
                                            d="M14.3398 7.39814C14.1825 7.40671 14.0318 7.47944 13.9167 7.58698C13.8015 7.69453 13.7205 7.83548 13.6705 7.985C13.5706 8.28404 13.5932 8.60817 13.6157 8.92171C13.6363 9.20643 13.6572 9.49655 13.7639 9.76139C13.8172 9.89377 13.892 10.0177 13.9919 10.1205C14.0917 10.2234 14.2174 10.301 14.3558 10.3356C14.4857 10.3681 14.6243 10.3614 14.7519 10.3213C14.8796 10.2812 14.9962 10.2082 15.0918 10.1147C15.2314 9.97816 15.3254 9.79957 15.3793 9.61187C15.4332 9.42417 15.4486 9.22729 15.4457 9.03217C15.4422 8.78792 15.4104 8.54261 15.3339 8.31072C15.2573 8.07884 15.1354 7.85978 14.9651 7.68454C14.8826 7.59971 14.7885 7.52504 14.6823 7.47272C14.5761 7.42041 14.4576 7.39098 14.3394 7.39734L14.3398 7.39814Z"
                                            fill="url(#paint0_radial_357_1338)" />
                                        <path
                                            d="M17.125 7.39813C16.8793 7.56604 16.6734 7.80242 16.5727 8.08299C16.4458 8.43665 16.4944 8.83236 16.6169 9.18761C16.7424 9.55142 16.9522 9.89809 17.2691 10.1165C17.4275 10.2258 17.6109 10.3006 17.8019 10.3233C17.993 10.346 18.1916 10.3149 18.3622 10.2261C18.5701 10.1178 18.7287 9.92805 18.8272 9.71535C18.9256 9.50264 18.9677 9.26732 18.9808 9.03314C18.9984 8.73489 18.9684 8.4317 18.8703 8.14945C18.7638 7.84281 18.5698 7.56003 18.2983 7.38355C18.1622 7.29536 18.0074 7.23474 17.8467 7.21256C17.6861 7.19038 17.5193 7.20699 17.3681 7.26576C17.282 7.29934 17.2014 7.34591 17.1251 7.39831L17.125 7.39813Z"
                                            fill="url(#paint1_radial_357_1338)" />
                                        <g opacity="0.3" filter="url(#filter1_f_357_1338)">
                                            <path
                                                d="M14.2875 9.94253L13.8336 10.3565C13.7537 10.437 13.6737 10.523 13.6379 10.6305C13.6061 10.7259 13.6121 10.8296 13.5963 10.9292C13.591 10.9633 13.5831 10.9972 13.5829 11.0317C13.5826 11.049 13.5849 11.0662 13.5898 11.0828C13.5948 11.0993 13.6031 11.1148 13.615 11.1275C13.6346 11.1484 13.6625 11.1598 13.6906 11.1655C13.7187 11.1711 13.7476 11.1718 13.7762 11.1749C13.9048 11.1888 14.0234 11.2512 14.13 11.3247L14.4437 11.5531C14.685 11.7064 14.9733 11.7745 15.259 11.7854C15.5447 11.7962 15.8297 11.7527 16.11 11.6966C16.3327 11.652 16.5548 11.5994 16.7661 11.5159C17.0898 11.3883 17.3815 11.1919 17.6603 10.9838C17.7869 10.8892 17.9118 10.7918 18.0255 10.682C18.0641 10.6447 18.1015 10.606 18.1428 10.5719C18.1842 10.5378 18.2301 10.5081 18.2812 10.4917C18.359 10.4666 18.4435 10.4738 18.5241 10.4872C18.5848 10.4974 18.6457 10.5111 18.7072 10.5084C18.7379 10.5072 18.7688 10.5019 18.7973 10.4904C18.8258 10.4789 18.8523 10.4613 18.8718 10.4374C18.8973 10.4055 18.9111 10.3658 18.9109 10.325C18.911 10.2845 18.8985 10.2446 18.8782 10.2097C18.8371 10.1399 18.7661 10.0928 18.6921 10.0599C18.5909 10.0148 18.4813 9.99273 18.3735 9.96657C18.0425 9.88668 17.7209 9.76862 17.4159 9.61716C17.2643 9.54187 17.1169 9.45845 16.9677 9.37856C16.8143 9.29638 16.658 9.21738 16.4914 9.16692C16.1191 9.05407 15.712 9.0911 15.3446 9.2187C14.9364 9.36044 14.5673 9.61309 14.2872 9.94227L14.2875 9.94253Z"
                                                fill="black" />
                                        </g>
                                        <g filter="url(#filter2_f_357_1338)">
                                            <path
                                                d="M18.1406 4.61336C17.914 4.77322 18.013 4.97279 18.1104 5.17317C18.2079 5.37355 17.8962 5.95107 17.8929 5.97592C17.8895 6.00076 18.5063 5.68318 18.6744 5.47679C18.873 5.23314 19.3746 5.80649 19.3475 5.71913C19.3477 5.56304 18.3672 4.4535 18.1407 4.61336H18.1406Z"
                                                fill="#7C7C7C" />
                                        </g>
                                        <path
                                            d="M17.6916 8.14019C17.5993 8.14682 17.5092 8.17837 17.4309 8.22856C17.3527 8.27876 17.2858 8.34477 17.2333 8.42121C17.1284 8.57391 17.0822 8.76116 17.0748 8.94612C17.0693 9.08504 17.0845 9.22581 17.1307 9.35704C17.1768 9.48826 17.2544 9.60977 17.3616 9.69841C17.4712 9.78916 17.6104 9.84368 17.7526 9.8504C17.8948 9.85712 18.0389 9.8162 18.1556 9.7349C18.2486 9.67013 18.3237 9.58096 18.3771 9.48102C18.4306 9.38107 18.4628 9.27043 18.4774 9.15803C18.5034 8.95946 18.4741 8.75215 18.3822 8.57417C18.2904 8.3962 18.1348 8.2496 17.9468 8.1804C17.8655 8.15036 17.7781 8.1348 17.6916 8.14099V8.14019Z"
                                            fill="#020204" />
                                        <g filter="url(#filter3_f_357_1338)">
                                            <path
                                                d="M17.912 8.74619C17.8355 8.77641 17.7144 8.75741 17.6809 8.83253C17.661 8.87706 17.6891 8.95032 17.7342 8.96861C17.8253 9.00573 17.9667 8.93857 18.0037 8.84711C18.0196 8.80734 17.9955 8.7446 17.956 8.72781C17.9414 8.72162 17.9268 8.74018 17.9121 8.74601L17.912 8.74619Z"
                                                fill="#141413" />
                                        </g>
                                        <g filter="url(#filter4_f_357_1338)">
                                            <path
                                                d="M18.2628 8.94443C18.3653 8.84192 18.1898 8.56974 18.0529 8.4584C17.9537 8.37772 17.665 8.29315 17.6773 8.38107C17.6897 8.469 17.8187 8.58132 17.9066 8.66712C18.0137 8.77273 18.2142 8.99321 18.2628 8.94443Z"
                                                fill="url(#paint2_linear_357_1338)" />
                                        </g>
                                        <g filter="url(#filter5_f_357_1338)">
                                            <path
                                                d="M17.9783 6.66992C17.9362 6.72294 17.8981 6.78056 17.8678 6.84401C18.0575 6.88484 18.239 6.96295 18.4007 7.0705C18.714 7.27852 18.9519 7.58269 19.1187 7.92105C19.1576 7.87793 19.1931 7.83162 19.2237 7.78019C19.056 7.42778 18.8133 7.10903 18.4892 6.89385C18.3335 6.79046 18.16 6.71234 17.9784 6.67028L17.9783 6.66992Z"
                                                fill="url(#paint3_linear_357_1338)" />
                                        </g>
                                        <g filter="url(#filter6_f_357_1338)">
                                            <path
                                                d="M14.3219 6.84286C14.3006 6.84242 14.2798 6.84436 14.2583 6.84534L14.2168 6.84781C14.3416 6.85912 14.4658 6.8927 14.5786 6.94325C14.7323 7.01218 14.8679 7.11053 14.9873 7.22249C15.2085 7.42972 15.373 7.68555 15.4843 7.95684C15.4571 7.75184 15.3955 7.55289 15.3021 7.36839C15.2585 7.31802 15.2132 7.26854 15.1641 7.22258C15.0448 7.11071 14.9091 7.01244 14.7554 6.94334C14.6211 6.88298 14.4714 6.84542 14.3219 6.84277L14.3219 6.84286Z"
                                                fill="url(#paint4_linear_357_1338)" />
                                        </g>
                                        <path
                                            d="M13.9605 8.70207C13.9276 8.90055 13.9264 9.10875 13.9946 9.29795C14.0388 9.4229 14.1139 9.53628 14.2042 9.63375C14.2635 9.69755 14.3304 9.75552 14.4089 9.79308C14.4874 9.83063 14.5782 9.84663 14.6625 9.82551C14.7403 9.80607 14.8085 9.7557 14.8587 9.69322C14.9089 9.63074 14.9425 9.55598 14.9663 9.47937C15.0368 9.25314 15.0255 9.00553 14.9556 8.77913C14.9046 8.61415 14.8202 8.45499 14.6881 8.34374C14.6251 8.29071 14.5513 8.24918 14.4711 8.23001C14.391 8.21083 14.3041 8.21542 14.2292 8.24945C14.1459 8.28727 14.0814 8.35929 14.0392 8.44032C13.9969 8.52136 13.9753 8.61176 13.9603 8.7019L13.9605 8.70207Z"
                                            fill="#020204" />
                                        <g filter="url(#filter7_f_357_1338)">
                                            <path
                                                d="M14.3801 8.55803C14.4015 8.61406 14.4732 8.63438 14.5126 8.67954C14.5509 8.72346 14.591 8.76879 14.6121 8.82314C14.6523 8.92706 14.5723 9.08118 14.6562 9.15452C14.6826 9.1775 14.7353 9.17803 14.7612 9.15452C14.8624 9.06244 14.8399 8.87669 14.7999 8.74582C14.7637 8.62705 14.6738 8.51464 14.5631 8.45818C14.5119 8.43211 14.435 8.41046 14.3911 8.44757C14.3629 8.47143 14.3669 8.52357 14.3801 8.55803Z"
                                                fill="url(#paint5_linear_357_1338)" />
                                        </g>
                                        <path
                                            d="M13.5904 11.1683C13.5957 11.1943 13.6057 11.2195 13.6193 11.2425C13.6428 11.2818 13.6771 11.3137 13.7141 11.3406C13.7512 11.3675 13.7913 11.3901 13.8301 11.4144C14.0363 11.544 14.2043 11.7263 14.3537 11.9187C14.554 12.1769 14.7312 12.4635 14.9988 12.6513C15.1877 12.7838 15.4137 12.8594 15.6433 12.8825C15.9128 12.9096 16.1859 12.866 16.4459 12.7895C16.6868 12.7185 16.9198 12.6189 17.1336 12.4873C17.5401 12.2366 17.8794 11.8693 18.3266 11.7046C18.4244 11.6686 18.5263 11.6429 18.6205 11.5985C18.7147 11.5542 18.8034 11.4877 18.8485 11.3937C18.8926 11.3034 18.89 11.1991 18.9041 11.0999C18.9192 10.9938 18.9531 10.8911 18.9717 10.7856C18.9902 10.6801 18.9924 10.5672 18.9469 10.4702C18.9091 10.3897 18.8404 10.3263 18.7613 10.2859C18.6822 10.2455 18.5934 10.2272 18.5047 10.2228C18.3274 10.214 18.1523 10.2595 17.9756 10.2757C17.7414 10.297 17.5056 10.267 17.2706 10.2739C16.9783 10.2827 16.6902 10.3486 16.3981 10.3627C16.0648 10.3789 15.7322 10.3273 15.3988 10.3141C15.2544 10.3083 15.109 10.3097 14.9665 10.334C14.824 10.3583 14.6842 10.4068 14.5653 10.4889C14.4495 10.5689 14.3571 10.678 14.2507 10.7703C14.1975 10.8164 14.1402 10.8586 14.077 10.8893C14.0137 10.92 13.9438 10.9391 13.8734 10.9376C13.838 10.9367 13.8 10.9308 13.7656 10.9418C13.744 10.9486 13.7249 10.9618 13.7087 10.9777C13.6924 10.9935 13.6791 11.0119 13.6664 11.0307C13.637 11.0743 13.6114 11.1204 13.5898 11.1684L13.5904 11.1683Z"
                                            fill="url(#paint6_radial_357_1338)" />
                                        <g filter="url(#filter8_f_357_1338)">
                                            <path
                                                d="M14.8987 11.5281C14.8657 11.6707 14.8867 11.8205 14.9576 11.9485C15.0285 12.0766 15.1444 12.1738 15.2828 12.2215C15.4576 12.2798 15.6545 12.2512 15.8179 12.166C15.9124 12.1165 15.999 12.0471 16.0538 11.9553C16.0815 11.9095 16.0997 11.8585 16.1073 11.8055C16.1143 11.7524 16.1095 11.6977 16.0909 11.6477C16.0706 11.5929 16.0344 11.5445 15.9896 11.5067C15.9449 11.4689 15.892 11.4415 15.8365 11.4231C15.7253 11.3863 15.6059 11.3856 15.4889 11.3913C15.3116 11.3998 15.1352 11.422 14.9614 11.4578"
                                                fill="#D9B30D" />
                                        </g>
                                        <g filter="url(#filter9_f_357_1338)">
                                            <path
                                                d="M14.3251 10.4301L13.9807 10.6566C13.9226 10.6978 13.8628 10.7423 13.8322 10.8065C13.8105 10.852 13.8055 10.9037 13.8057 10.954C13.8059 11.0044 13.8083 11.0551 13.8016 11.1043C13.7972 11.1384 13.788 11.172 13.7864 11.2063C13.7855 11.2236 13.7869 11.2408 13.7914 11.2576C13.7957 11.2743 13.804 11.2898 13.8157 11.3026C13.831 11.3187 13.8517 11.3287 13.8731 11.3353C13.8945 11.3418 13.9164 11.345 13.9382 11.3503C14.042 11.3747 14.1323 11.4384 14.2116 11.5097L14.4449 11.7285C14.6691 11.9109 14.9662 11.9865 15.2543 11.9912C15.5424 11.9959 15.8291 11.9356 16.1111 11.8719L16.7672 11.6913C17.0944 11.5707 17.3982 11.388 17.6613 11.1591C17.7806 11.0554 17.8926 10.9414 18.0265 10.8574C18.145 10.783 18.2778 10.7338 18.3982 10.6627C18.409 10.6563 18.4197 10.6498 18.4293 10.6417C18.439 10.6337 18.4475 10.6242 18.4532 10.613C18.4629 10.5936 18.4629 10.5706 18.4567 10.5498C18.4505 10.5289 18.4385 10.5105 18.4249 10.4937C18.4099 10.4752 18.3928 10.4582 18.3745 10.4427C18.2487 10.3348 18.0779 10.2958 17.9127 10.2827C17.7476 10.2696 17.5805 10.2789 17.4179 10.2516C17.2641 10.2251 17.118 10.1685 16.9697 10.1211C16.814 10.0707 16.6548 10.032 16.4934 10.0053C16.1139 9.94345 15.7231 9.9553 15.3467 10.0336C14.9881 10.1083 14.6424 10.243 14.3269 10.4295L14.3251 10.4301Z"
                                                fill="#604405" />
                                        </g>
                                        <path
                                            d="M14.2875 10.0305C14.1169 10.1454 13.9635 10.2853 13.8336 10.4445C13.7594 10.5355 13.6919 10.6345 13.6545 10.746C13.6251 10.8337 13.6151 10.9265 13.5965 11.0171C13.5895 11.051 13.5815 11.0851 13.5815 11.1196C13.5816 11.1369 13.5838 11.1543 13.5891 11.1708C13.5944 11.1873 13.6031 11.2028 13.6151 11.2153C13.635 11.236 13.6628 11.2471 13.6909 11.2529C13.719 11.2588 13.7478 11.2595 13.7763 11.2628C13.9048 11.2774 14.0232 11.3399 14.1297 11.4132L14.4438 11.641C14.6854 11.7939 14.9736 11.8618 15.2592 11.8728C15.5448 11.8839 15.8298 11.8405 16.1102 11.7845C16.3329 11.74 16.555 11.6873 16.7663 11.6038C17.0899 11.4762 17.3817 11.2798 17.6604 11.0717C17.7871 10.9771 17.9119 10.8796 18.0257 10.7699C18.0643 10.7326 18.1017 10.6939 18.143 10.6598C18.1844 10.6257 18.2303 10.596 18.2814 10.5795C18.3592 10.5545 18.4437 10.5617 18.5242 10.5751C18.585 10.5853 18.6458 10.599 18.7073 10.5963C18.7381 10.5951 18.7689 10.5898 18.7975 10.5783C18.826 10.5668 18.8524 10.5491 18.872 10.5253C18.8975 10.4934 18.9113 10.4537 18.911 10.4129C18.9112 10.3724 18.8987 10.3325 18.8783 10.2976C18.8372 10.2277 18.7663 10.1806 18.6923 10.1478C18.591 10.1027 18.4815 10.0806 18.3737 10.0545C18.0427 9.97457 17.7211 9.85651 17.4161 9.70505C17.2645 9.62976 17.1171 9.54634 16.9679 9.46645C16.8145 9.38427 16.6582 9.30527 16.4916 9.25481C16.1193 9.14196 15.7122 9.17899 15.3448 9.30659C14.9365 9.44834 14.5674 9.70098 14.2874 10.0302L14.2875 10.0305Z"
                                            fill="url(#paint7_linear_357_1338)" />
                                        <g filter="url(#filter10_f_357_1338)">
                                            <path
                                                d="M16.9032 10.1122C16.8832 10.087 16.8546 10.0691 16.8237 10.0601C16.7927 10.0511 16.7596 10.0513 16.7279 10.0557C16.6643 10.0666 16.6073 10.0999 16.5541 10.1374C16.403 10.2414 16.2696 10.3697 16.1532 10.5112C15.999 10.6986 15.8718 10.9153 15.8291 11.1541C15.822 11.1943 15.8172 11.2354 15.8222 11.2761C15.8272 11.3167 15.8428 11.3569 15.8717 11.3859C15.8969 11.4114 15.9314 11.4269 15.9669 11.432C16.0025 11.4372 16.039 11.4322 16.073 11.4207C16.141 11.3978 16.1976 11.35 16.251 11.3023C16.5458 11.0385 16.8124 10.7219 16.919 10.3409C16.9296 10.3026 16.9388 10.2634 16.9385 10.2238C16.9381 10.1841 16.9279 10.1434 16.9033 10.1122H16.9032Z"
                                                fill="#F6DA4A" />
                                        </g>
                                        <g opacity="0.8" filter="url(#filter11_f_357_1338)">
                                            <path
                                                d="M16.1971 9.56607C16.2175 9.63164 16.3233 9.62085 16.3845 9.65223C16.4381 9.6798 16.4812 9.74033 16.5415 9.7421C16.5989 9.74386 16.6886 9.72221 16.6962 9.66522C16.7061 9.58984 16.5959 9.54194 16.5252 9.51428C16.4341 9.47876 16.3172 9.46073 16.2318 9.50827C16.2122 9.51914 16.1908 9.54468 16.1975 9.56615L16.1971 9.56607Z"
                                                fill="url(#paint8_radial_357_1338)" />
                                        </g>
                                        <g opacity="0.8" filter="url(#filter12_f_357_1338)">
                                            <path
                                                d="M15.1877 9.52851C15.1092 9.50289 14.9794 9.64136 15.0217 9.71232C15.0334 9.73176 15.069 9.7565 15.093 9.74325C15.1292 9.72337 15.1587 9.65223 15.1979 9.62439C15.224 9.60583 15.2182 9.5385 15.1876 9.5286L15.1877 9.52851Z"
                                                fill="url(#paint9_radial_357_1338)" />
                                        </g>
                                        <g filter="url(#filter13_f_357_1338)">
                                            <path
                                                d="M18.648 10.8756C18.7875 10.8756 18.9162 10.7358 18.9355 10.5633C18.9548 10.3908 18.8575 10.251 18.718 10.251C18.5786 10.251 18.4498 10.3908 18.4305 10.5633C18.4112 10.7358 18.5085 10.8756 18.648 10.8756Z"
                                                fill="url(#paint10_linear_357_1338)" />
                                        </g>
                                        <path
                                            d="M22.3699 16.5082C22.9076 16.9408 23.2488 17.5939 23.3543 18.2759C23.4367 18.8079 23.3831 19.3535 23.2633 19.8782C23.1435 20.4028 22.9583 20.91 22.7744 21.4158C22.7011 21.6176 22.6276 21.8212 22.5984 22.0338C22.5693 22.2464 22.5878 22.4716 22.6903 22.6601C22.8079 22.8763 23.0273 23.0251 23.2631 23.0952C23.496 23.1644 23.7474 23.1629 23.9832 23.1042C24.2189 23.0455 24.4389 22.9307 24.6307 22.7816C25.1182 22.4032 25.4123 21.814 25.5261 21.2076C25.6399 20.6012 25.5876 19.9749 25.4819 19.3669C25.3376 18.538 25.0947 17.7276 24.7856 16.9449C24.5582 16.3691 24.2921 15.8031 23.9204 15.3083C23.5566 14.824 23.098 14.4164 22.7416 13.9266C22.4939 13.5864 22.2955 13.2064 21.9987 12.9081C21.8503 12.7589 21.6771 12.6313 21.4809 12.555C21.2847 12.4788 21.0644 12.4564 20.8619 12.5135C20.595 12.5886 20.3758 12.7989 20.2607 13.051C20.1456 13.303 20.1243 13.5921 20.1695 13.8657C20.2278 14.2188 20.3892 14.5464 20.5712 14.8546C20.7769 15.2025 21.015 15.5374 21.3255 15.7961C21.6496 16.066 22.0415 16.2441 22.3701 16.5083L22.3699 16.5082Z"
                                            fill="#020204" />
                                        <g opacity="0.25" filter="url(#filter14_f_357_1338)">
                                            <path
                                                d="M12.7213 15.2837C12.811 15.4184 12.6655 15.8827 14.7577 15.5855C14.7577 15.5855 14.3903 15.6259 14.0281 15.7096C13.465 15.8981 12.9744 16.1087 12.5959 16.3878C12.2209 16.6637 11.9464 17.0238 11.6024 17.3331C11.6024 17.3331 12.1595 16.3151 12.2984 16.0087C12.4372 15.7023 12.2751 15.7171 12.3851 15.2652C12.495 14.8132 12.7638 14.3809 12.7638 14.3809C12.7638 14.3809 12.5443 15.018 12.7213 15.2836V15.2837Z"
                                                fill="url(#paint11_radial_357_1338)" />
                                        </g>
                                        <g opacity="0.42" filter="url(#filter15_f_357_1338)">
                                            <path
                                                d="M19.4491 15.1619C19.0227 15.4588 18.7729 15.4237 18.2555 15.4817C17.7381 15.5398 16.3381 15.5189 16.3381 15.5189C16.3381 15.5189 16.5408 15.5151 16.9901 15.5988C17.4393 15.6824 18.3556 15.7624 18.8716 15.9589C19.3876 16.1553 19.5758 16.2113 19.8894 16.4095C20.3356 16.6918 20.6633 17.1339 21.09 17.4432C21.09 17.4432 21.1107 17.0328 20.9384 16.7263C20.7661 16.4199 20.3021 15.9368 20.1668 15.4856C20.0314 15.0345 19.9658 14.1484 19.9658 14.1484C19.9658 14.1484 19.8757 14.8647 19.4492 15.1617L19.4491 15.1619Z"
                                                fill="url(#paint12_radial_357_1338)" />
                                        </g>
                                        <g opacity="0.2" filter="url(#filter16_f_357_1338)">
                                            <path
                                                d="M15.4389 14.5273L15.3773 14.9111C15.365 14.9739 15.3513 15.0366 15.3278 15.0961C15.3044 15.1556 15.2709 15.212 15.2236 15.2548C15.182 15.2923 15.1313 15.3181 15.0804 15.3414C14.8818 15.4324 14.6691 15.4928 14.4523 15.5199L14.7116 15.5436C14.766 15.5495 14.8205 15.5561 14.8735 15.5697C14.9266 15.5833 14.9783 15.6051 15.0224 15.6365C15.0708 15.6718 15.1088 15.7202 15.1372 15.7731C15.1938 15.8784 15.2127 15.9996 15.2232 16.1177C15.2365 16.27 15.2375 16.4235 15.2261 16.5758C15.2364 16.4738 15.2578 16.3729 15.2898 16.2755C15.3475 16.1 15.4403 15.9355 15.5655 15.7996C15.6151 15.7457 15.6697 15.6962 15.7298 15.654C15.9161 15.5241 16.1442 15.4686 16.3693 15.4983C16.141 15.5076 15.9165 15.4379 15.7335 15.301C15.6415 15.2316 15.5612 15.1452 15.5056 15.0443C15.4191 14.8861 15.3954 14.7012 15.4392 14.5264L15.4389 14.5273Z"
                                                fill="url(#paint13_radial_357_1338)" />
                                        </g>
                                        <g opacity="0.1" filter="url(#filter17_f_357_1338)">
                                            <path
                                                d="M14.8937 17.5361C14.785 17.9499 14.7103 18.3718 14.6705 18.7978C14.6142 19.3997 14.6277 20.006 14.5954 20.6098C14.5689 21.1221 14.5079 21.6398 14.5968 22.1451C14.6392 22.3861 14.7155 22.621 14.8226 22.841C14.8396 22.757 14.852 22.6722 14.8599 22.5869C14.8976 22.1772 14.8286 21.7662 14.8052 21.3554C14.7644 20.6355 14.8641 19.915 14.9047 19.1959C14.9358 18.643 14.9321 18.0887 14.8936 17.5362L14.8937 17.5361Z"
                                                fill="black" />
                                        </g>
                                        <path
                                            d="M27.7519 25.9128C27.6927 26.0648 27.6081 26.2068 27.5031 26.3315C27.2712 26.6067 26.9492 26.7883 26.6286 26.9518C26.0816 27.2305 25.5149 27.4751 25.0008 27.8105C24.6564 28.0351 24.3384 28.2989 24.0411 28.583C23.7869 28.826 23.5457 29.0856 23.2607 29.2916C22.9729 29.4992 22.6403 29.6498 22.2895 29.7025C21.8627 29.7665 21.4217 29.6836 21.0258 29.5112C20.7485 29.3904 20.4818 29.2176 20.3221 28.9607C20.1618 28.7028 20.1252 28.3874 20.1248 28.0837C20.1241 27.5467 20.2236 27.0145 20.3173 26.4866C20.395 26.0473 20.4693 25.6069 20.517 25.1633C20.6038 24.3565 20.6032 23.5415 20.5452 22.732C20.5364 22.5965 20.5242 22.4596 20.5445 22.3252C20.5649 22.1908 20.6201 22.0568 20.723 21.9681C20.8182 21.8862 20.9457 21.8501 21.0712 21.8432C21.1967 21.8363 21.3217 21.8562 21.4459 21.8743C21.7387 21.9171 22.0337 21.9507 22.3199 22.026C22.5004 22.0735 22.6763 22.1374 22.8565 22.186C23.1572 22.2673 23.472 22.3062 23.7814 22.2701C24.1146 22.2312 24.438 22.106 24.7733 22.1141C24.9109 22.1175 25.0472 22.1435 25.1785 22.1848C25.3124 22.2271 25.4445 22.2875 25.5429 22.3876C25.6176 22.4636 25.6698 22.5595 25.709 22.6589C25.7673 22.8069 25.7987 22.9644 25.8121 23.1229C25.8241 23.2632 25.8221 23.4051 25.8487 23.5435C25.8925 23.7711 26.0119 23.9785 26.1605 24.1563C26.309 24.3341 26.4874 24.4851 26.6638 24.6342C26.8406 24.7827 27.0182 24.9307 27.2088 25.0609C27.2982 25.122 27.3905 25.1793 27.4754 25.2465C27.5603 25.3136 27.6385 25.392 27.6915 25.4864C27.7635 25.6145 27.7855 25.7699 27.7518 25.9129L27.7519 25.9128Z"
                                            fill="url(#paint14_linear_357_1338)" />
                                        <g filter="url(#filter18_f_357_1338)">
                                            <path
                                                d="M27.4766 25.6338C27.4219 25.7708 27.3451 25.898 27.2494 26.0102C27.0371 26.2589 26.743 26.4215 26.4507 26.5679C25.9511 26.8179 25.4342 27.0378 24.9643 27.3398C24.6503 27.5416 24.3599 27.7786 24.0879 28.0343C23.8555 28.2529 23.635 28.4864 23.3751 28.6713C23.1118 28.8586 22.8079 28.9936 22.4881 29.0407C22.0984 29.0981 21.6963 29.0236 21.3342 28.8687C21.0817 28.7607 20.8378 28.6063 20.6916 28.3739C20.5461 28.1426 20.5122 27.8587 20.5113 27.5854C20.5102 27.1025 20.6013 26.6249 20.6872 26.1496C20.7585 25.7546 20.8264 25.3589 20.8696 24.9599C20.9482 24.2346 20.9445 23.502 20.8954 22.7741C20.8871 22.6521 20.8777 22.5289 20.8964 22.4082C20.9152 22.2875 20.9652 22.1673 21.0578 22.0875C21.1447 22.0126 21.2613 21.9798 21.3759 21.9738C21.4905 21.9678 21.6045 21.9864 21.7179 22.003C21.985 22.0423 22.2545 22.0719 22.5159 22.1393C22.6807 22.1819 22.8414 22.2394 23.0059 22.2832C23.2807 22.3565 23.5681 22.3914 23.8507 22.3588C24.1547 22.3238 24.4505 22.2113 24.7565 22.2186C24.882 22.2217 25.0066 22.2451 25.1267 22.2822C25.2489 22.3199 25.3698 22.3736 25.4595 22.4645C25.5271 22.533 25.5739 22.6195 25.6111 22.7084C25.6664 22.8407 25.7024 22.9821 25.7053 23.1255C25.7084 23.2752 25.6756 23.4255 25.6959 23.5738C25.7124 23.6943 25.7634 23.8078 25.8285 23.9105C25.8936 24.0132 25.9729 24.1058 26.0514 24.1986C26.2032 24.378 26.3554 24.5606 26.5457 24.6983C26.7624 24.8551 27.0195 24.9466 27.2434 25.0931C27.3101 25.1367 27.3747 25.186 27.4217 25.2504C27.4609 25.3052 27.4864 25.3686 27.496 25.4354C27.5056 25.5021 27.499 25.5701 27.4768 25.6338H27.4766Z"
                                                fill="#CD8907" />
                                        </g>
                                        <g filter="url(#filter19_f_357_1338)">
                                            <path
                                                d="M27.0396 25.8911C26.9824 26.0144 26.9083 26.1293 26.8202 26.2313C26.6158 26.4679 26.3398 26.6309 26.0489 26.7354C25.5702 26.9076 25.0476 26.9307 24.5777 27.1269C24.2913 27.2464 24.0336 27.4264 23.7725 27.5967C23.5615 27.7341 23.346 27.8667 23.1143 27.9628C22.8527 28.0715 22.5744 28.1324 22.2953 28.1753C22.1177 28.2026 21.938 28.2225 21.7586 28.213C21.5793 28.2035 21.3994 28.1636 21.2412 28.0765C21.1211 28.0105 21.0133 27.9154 20.9491 27.7921C20.8779 27.6551 20.8655 27.4942 20.8673 27.3389C20.8716 26.925 20.9647 26.5156 20.9618 26.1017C20.9594 25.7415 20.8844 25.3858 20.8629 25.0262C20.8214 24.3347 20.9773 23.6311 20.8401 22.9527C20.8183 22.8441 20.7886 22.7356 20.7901 22.6247C20.7908 22.5691 20.7996 22.5136 20.82 22.4622C20.8404 22.4108 20.8734 22.3642 20.9173 22.3318C20.9543 22.3045 20.998 22.2879 21.0429 22.2804C21.0878 22.2729 21.1338 22.2744 21.1789 22.2811C21.2689 22.2945 21.3547 22.3281 21.4424 22.3529C21.6932 22.4241 21.9582 22.4225 22.2131 22.4762C22.3731 22.51 22.528 22.5649 22.6863 22.6063C22.9522 22.6745 23.2294 22.705 23.5021 22.6745C23.7955 22.6418 24.082 22.5405 24.3769 22.5478C24.4978 22.5507 24.6178 22.5722 24.7344 22.6053C24.851 22.6384 24.9675 22.6852 25.0557 22.77C25.1193 22.8312 25.1649 22.9094 25.2021 22.9903C25.2562 23.1084 25.2939 23.2369 25.293 23.3673C25.2926 23.4353 25.2817 23.5026 25.2753 23.5701C25.2689 23.6375 25.2669 23.7069 25.2838 23.7725C25.3007 23.8381 25.3364 23.898 25.3772 23.9519C25.4179 24.0058 25.4641 24.0552 25.5061 24.108C25.624 24.2559 25.7084 24.4282 25.8002 24.5944C25.892 24.7606 25.995 24.9251 26.1401 25.0447C26.3376 25.2077 26.5938 25.2728 26.8139 25.4015C26.8784 25.4392 26.9408 25.4834 26.9861 25.5438C27.0224 25.5924 27.0463 25.6496 27.0556 25.7102C27.0649 25.7707 27.0593 25.8327 27.0394 25.8904L27.0396 25.8911Z"
                                                fill="#F5C021" />
                                        </g>
                                        <g filter="url(#filter20_f_357_1338)">
                                            <path
                                                d="M20.7976 22.2694C21.0871 22.191 21.3337 22.4105 21.5436 22.5762C21.6793 22.692 21.8753 22.6628 22.0418 22.6683C22.3175 22.6583 22.5919 22.7145 22.8678 22.6803C23.4108 22.6344 23.943 22.5009 24.4886 22.4771C24.7493 22.4606 25.0418 22.4455 25.267 22.5977C25.3583 22.661 25.4921 22.9282 25.5821 22.8279C25.545 22.5471 25.3367 22.2751 25.0572 22.2003C24.8385 22.1658 24.6154 22.2259 24.3953 22.2065C23.7394 22.1908 23.0881 22.0691 22.4305 22.104C21.9731 22.1079 21.5162 22.0867 21.0595 22.0689C20.8801 22.0322 20.8167 22.1917 20.7193 22.2527"
                                                fill="url(#paint15_linear_357_1338)" />
                                        </g>
                                        <g opacity="0.75" filter="url(#filter21_f_357_1338)">
                                            <path
                                                d="M22.0955 16.9304C22.2005 16.9142 22.8482 17.4648 22.7596 17.6703C22.6711 17.8758 22.5047 17.7515 22.3857 17.7529C22.2667 17.7543 21.9412 17.9021 21.8866 17.8088C21.8321 17.7156 22.0306 17.4978 22.1345 17.3158C22.2182 17.1692 21.9905 16.9477 22.0956 16.9314L22.0955 16.9304Z"
                                                fill="#7C7C7C" />
                                        </g>
                                        <g opacity="0.25" filter="url(#filter22_f_357_1338)">
                                            <path
                                                d="M12.9561 13.4638C12.9456 13.3369 12.7645 13.3179 12.6837 13.3811C12.6154 13.4346 12.5514 13.6172 12.6103 13.6886C12.706 13.8043 12.9704 13.6378 12.9561 13.4639L12.9561 13.4638Z"
                                                fill="#7C7C7C" />
                                        </g>
                                        <g opacity="0.35" filter="url(#filter23_f_357_1338)">
                                            <path
                                                d="M24.7013 22.7109C24.6515 22.6135 24.561 22.5407 24.46 22.4985C24.359 22.4564 24.2482 22.4429 24.1389 22.4437C23.9202 22.4455 23.7028 22.5024 23.4849 22.4835C23.3009 22.4676 23.1262 22.3984 22.9459 22.3547C22.7606 22.3106 22.564 22.2929 22.3799 22.3421C22.1832 22.3957 22.0096 22.5272 21.9009 22.6996C21.8051 22.8516 21.7595 23.0312 21.7454 23.2103C21.7313 23.3895 21.7465 23.5696 21.7647 23.7485C21.7777 23.8779 21.7924 24.0074 21.8237 24.1338C21.855 24.2602 21.9036 24.3833 21.9797 24.4886C22.0893 24.6402 22.2522 24.7484 22.4278 24.8134C22.7178 24.9194 23.037 24.9138 23.3231 24.7977C23.8233 24.5806 24.2466 24.1911 24.5046 23.7108C24.597 23.5388 24.6687 23.3555 24.7151 23.166C24.7335 23.0906 24.748 23.0138 24.7487 22.9362C24.7494 22.8586 24.7357 22.7798 24.7005 22.7109H24.7013Z"
                                                fill="url(#paint16_radial_357_1338)" />
                                        </g>
                                        <g opacity="0.35" filter="url(#filter24_f_357_1338)">
                                            <path
                                                d="M24.7013 22.6083C24.6515 22.5379 24.561 22.4853 24.46 22.4548C24.359 22.4243 24.2482 22.4145 24.1389 22.4152C23.9202 22.4165 23.7028 22.4576 23.4849 22.4439C23.3009 22.4324 23.1262 22.3824 22.9459 22.3509C22.7606 22.3189 22.564 22.3061 22.3799 22.3417C22.1832 22.3804 22.0096 22.4755 21.9009 22.6001C21.8051 22.71 21.7595 22.8399 21.7454 22.9694C21.7313 23.0989 21.7465 23.2291 21.7647 23.3584C21.7777 23.452 21.7924 23.5456 21.8237 23.637C21.855 23.7283 21.9036 23.8173 21.9797 23.8935C22.0893 24.0031 22.2522 24.0813 22.4278 24.1282C22.7178 24.2049 23.037 24.2008 23.3231 24.1169C23.8233 23.96 24.2466 23.6784 24.5046 23.3312C24.597 23.2068 24.6687 23.0743 24.7151 22.9373C24.7335 22.8828 24.748 22.8273 24.7487 22.7712C24.7494 22.7151 24.7357 22.6581 24.7005 22.6083H24.7013Z"
                                                fill="url(#paint17_radial_357_1338)" />
                                        </g>
                                        <path
                                            d="M25.1169 21.7993C25.0811 21.7018 25.0181 21.6154 24.9411 21.5457C24.864 21.4761 24.7732 21.4227 24.6775 21.3821C24.4862 21.3008 24.278 21.2707 24.0737 21.2322L23.4969 21.1193C23.2963 21.0852 23.0888 21.0635 22.8902 21.1083C22.7165 21.1474 22.5558 21.2373 22.4243 21.3575C22.2928 21.4777 22.1902 21.6276 22.1164 21.7905C21.9863 22.0759 21.9454 22.3972 21.9702 22.7098C21.9888 22.9425 22.0475 23.1822 22.2008 23.3584C22.3246 23.5007 22.5002 23.5895 22.681 23.643C22.9925 23.7352 23.3321 23.7303 23.6407 23.6293C24.1541 23.4558 24.598 23.1219 24.9071 22.6768C25.0078 22.531 25.0937 22.3721 25.1327 22.1993C25.1624 22.0668 25.1634 21.9271 25.1169 21.8003V21.7993Z"
                                            fill="#020204" />
                                        <g filter="url(#filter25_f_357_1338)">
                                            <path
                                                d="M22.9989 21.0151C22.9507 21.0177 22.9028 21.0233 22.8553 21.0317C22.5487 21.0863 22.2679 21.28 22.1097 21.5482C21.9981 21.7393 21.9471 21.9598 21.9634 22.1805C21.9698 22.0266 22.0102 21.8759 22.0849 21.7413C22.2116 21.5132 22.4412 21.341 22.698 21.294C22.8571 21.265 23.019 21.2825 23.1786 21.3023C23.3317 21.3214 23.4861 21.3415 23.637 21.3742C23.8703 21.4247 24.1013 21.5023 24.2971 21.6393C24.3427 21.6711 24.3855 21.7073 24.4214 21.7497C24.4573 21.7921 24.4852 21.8415 24.496 21.8961C24.5117 21.976 24.4889 22.0598 24.4491 22.1308C24.4094 22.2017 24.355 22.2639 24.2971 22.3213C24.2503 22.3678 24.2004 22.4127 24.1508 22.4565C24.377 22.4127 24.6061 22.3506 24.7941 22.2191C24.8737 22.1634 24.9457 22.0967 24.993 22.0119C25.0402 21.9272 25.0603 21.8246 25.0371 21.7303C25.0215 21.6667 24.9868 21.6082 24.9433 21.5591C24.8998 21.5101 24.8478 21.4697 24.7942 21.4321C24.5574 21.2663 24.2803 21.16 23.9934 21.1255C23.8096 21.0916 23.624 21.0631 23.4385 21.0398C23.2933 21.0216 23.1451 21.0068 22.9993 21.015L22.9989 21.0151Z"
                                                fill="url(#paint18_radial_357_1338)" />
                                        </g>
                                        <path
                                            d="M12.9494 12.8828L11.454 14.755C11.1418 15.1421 10.8222 15.5321 10.6189 15.986C10.4443 16.376 10.3618 16.7996 10.242 17.2099C10.1061 17.6758 9.9216 18.1263 9.71447 18.5651C9.52315 18.9703 9.31239 19.366 9.10118 19.7613C8.9476 20.0488 8.79145 20.3428 8.73817 20.6644C8.6961 20.9186 8.72049 21.1808 8.78535 21.4302C8.85022 21.6796 8.95326 21.9171 9.07149 22.1465C9.57228 23.1252 10.3237 23.9689 11.2137 24.6142C11.6176 24.9071 12.0503 25.1604 12.5041 25.3677C12.7499 25.4799 13.009 25.5801 13.2793 25.5848C13.4145 25.5871 13.5509 25.5649 13.6746 25.5106C13.7984 25.4562 13.9088 25.3688 13.9824 25.2555C14.0728 25.116 14.1035 24.9428 14.0854 24.7776C14.0673 24.6125 14.0028 24.4548 13.9163 24.3128C13.7042 23.9661 13.3715 23.7154 13.0507 23.4669C12.3579 22.9301 11.6876 22.364 11.0463 21.7666C10.8651 21.5979 10.6841 21.4239 10.5576 21.2113C10.4344 21.0042 10.3678 20.7682 10.3227 20.5315C10.199 19.882 10.2308 19.1986 10.4517 18.5756C10.5382 18.3319 10.6523 18.0991 10.7626 17.8651C10.9535 17.4595 11.1344 17.0463 11.3856 16.6751C11.6983 16.2129 12.1162 15.8214 12.3709 15.325C12.586 14.9061 12.6732 14.4349 12.7564 13.9713L12.9494 12.8828Z"
                                            fill="#020204" />
                                        <path
                                            d="M9.33325 21.4184C9.47464 21.3599 9.63353 21.3492 9.78393 21.3769C9.93433 21.4047 10.0764 21.4697 10.2031 21.5556C10.4562 21.7276 10.6438 21.9778 10.8237 22.2254C11.2365 22.794 11.634 23.3744 11.9941 23.9778C12.2863 24.4672 12.5547 24.9726 12.8923 25.4317C13.1127 25.7315 13.3613 26.0097 13.5827 26.3085C13.8042 26.6074 14.0005 26.9321 14.0988 27.2909C14.2264 27.7572 14.177 28.2712 13.955 28.7007C13.7989 29.0029 13.5595 29.262 13.2682 29.4377C12.977 29.6133 12.6346 29.704 12.2948 29.6913C11.7545 29.671 11.2608 29.401 10.7586 29.2008C9.73524 28.7933 8.62356 28.6653 7.56869 28.3479C7.24438 28.2503 6.92572 28.1349 6.59929 28.0452C6.45436 28.0054 6.30678 27.9702 6.16981 27.9082C6.03284 27.8461 5.90471 27.7535 5.82853 27.6239C5.76968 27.5237 5.74476 27.4056 5.74635 27.2893C5.74794 27.173 5.77516 27.0582 5.81475 26.9489C5.89392 26.7303 6.02179 26.5324 6.10813 26.3165C6.24908 25.9639 6.27444 25.5752 6.25544 25.196C6.23644 24.8167 6.17503 24.4408 6.14896 24.0622C6.13747 23.893 6.13305 23.7217 6.16531 23.5553C6.19756 23.3889 6.26923 23.2261 6.39135 23.1086C6.50394 23.0002 6.65337 22.9358 6.80634 22.9038C6.9593 22.8719 7.11695 22.8705 7.27328 22.874C7.4296 22.8774 7.5861 22.8858 7.74199 22.8731C7.89787 22.8604 8.05419 22.8254 8.19002 22.7478C8.31904 22.6741 8.42455 22.5644 8.51203 22.4443C8.59952 22.3242 8.67022 22.1928 8.74268 22.0631C8.81514 21.9334 8.89008 21.804 8.98499 21.6896C9.07989 21.5753 9.19619 21.4755 9.33342 21.4186L9.33325 21.4184Z"
                                            fill="url(#paint19_linear_357_1338)" />
                                        <g filter="url(#filter26_f_357_1338)">
                                            <path
                                                d="M9.5562 21.6627C9.68478 21.6109 9.82962 21.6053 9.96473 21.6359C10.0998 21.6664 10.2254 21.7331 10.3348 21.8167C10.5538 21.9859 10.706 22.2245 10.8521 22.4592C11.203 23.0277 11.5458 23.6022 11.8698 24.1883C12.1152 24.6295 12.3492 25.0802 12.6507 25.4856C12.8508 25.7544 13.079 26.0008 13.2833 26.2665C13.4875 26.5322 13.6694 26.8216 13.7598 27.1442C13.8761 27.5601 13.829 28.0191 13.6277 28.402C13.482 28.6781 13.262 28.908 12.9927 29.0659C12.7227 29.2228 12.4133 29.2991 12.1013 29.2858C11.6066 29.263 11.1549 29.0159 10.6892 28.8484C9.79639 28.5244 8.82875 28.4809 7.91298 28.228C7.58469 28.1389 7.26461 28.0201 6.93473 27.9369C6.78875 27.9001 6.6402 27.87 6.50155 27.8114C6.3629 27.7528 6.23229 27.6621 6.15709 27.5317C6.10115 27.4348 6.07879 27.3207 6.08224 27.2088C6.08568 27.097 6.11405 26.9879 6.15293 26.8824C6.23264 26.6732 6.35795 26.4848 6.43836 26.2749C6.56031 25.959 6.57534 25.6118 6.55271 25.274C6.53009 24.9363 6.47141 24.6015 6.45082 24.2636C6.44163 24.1125 6.44022 23.9596 6.4708 23.8115C6.50137 23.6634 6.56588 23.5199 6.6736 23.4128C6.79025 23.297 6.95108 23.2339 7.11342 23.2092C7.27575 23.1844 7.44091 23.1952 7.60431 23.2098C7.7677 23.2244 7.93171 23.2428 8.09564 23.2329C8.25956 23.2231 8.42578 23.1832 8.56134 23.0909C8.68479 23.0074 8.77749 22.8856 8.84801 22.7553C8.91853 22.6251 8.9689 22.4853 9.02263 22.3473C9.07636 22.2093 9.13459 22.0714 9.21898 21.9497C9.30338 21.8279 9.41658 21.7194 9.55532 21.6638"
                                                fill="#D99A03" />
                                        </g>
                                        <g filter="url(#filter27_f_357_1338)">
                                            <path
                                                d="M9.24191 21.673C9.36184 21.6141 9.50305 21.6021 9.63455 21.6286C9.76606 21.6551 9.88787 21.7187 9.99147 21.8018C10.1986 21.967 10.33 22.2046 10.4525 22.4368C10.7336 22.9702 10.9955 23.5151 11.3319 24.0173C11.576 24.3809 11.8576 24.7211 12.1044 25.0837C12.4392 25.5753 12.7114 26.1162 12.8237 26.6955C12.8992 27.0852 12.8968 27.5053 12.707 27.8571C12.5819 28.0881 12.3795 28.2785 12.1402 28.3963C11.9009 28.514 11.6262 28.5629 11.3585 28.5395C10.9371 28.5028 10.5543 28.2979 10.1577 28.1549C9.4538 27.9012 8.69309 27.8407 7.9687 27.6492C7.66316 27.5685 7.36476 27.4645 7.05429 27.4013C6.91768 27.3731 6.77835 27.3526 6.64795 27.3038C6.51755 27.2551 6.39395 27.1744 6.32727 27.0551C6.28048 26.9712 6.26457 26.8729 6.27163 26.7777C6.2787 26.6825 6.30736 26.5897 6.34521 26.5016C6.42075 26.3252 6.53235 26.1636 6.59189 25.9813C6.67806 25.7135 6.64267 25.423 6.57794 25.1494C6.51321 24.8758 6.41998 24.6074 6.39132 24.3281C6.37856 24.2037 6.37881 24.0769 6.40748 23.955C6.43614 23.8331 6.49484 23.7161 6.58696 23.6286C6.70545 23.5161 6.87141 23.4601 7.03634 23.4444C7.20127 23.4287 7.3674 23.4502 7.5314 23.4733C7.6954 23.4964 7.86042 23.5229 8.02603 23.5146C8.19165 23.5063 8.36016 23.4642 8.48988 23.3639C8.61815 23.2647 8.69879 23.1171 8.74506 22.9643C8.79134 22.8115 8.80631 22.6518 8.82527 22.4936C8.84424 22.3355 8.86781 22.1758 8.9299 22.0284C8.992 21.881 9.09662 21.7452 9.24293 21.6734L9.24191 21.673Z"
                                                fill="#F5BD0C" />
                                        </g>
                                        <g filter="url(#filter28_f_357_1338)">
                                            <path
                                                d="M10.9972 22.7393C11.2275 23.1557 11.368 23.6337 11.5964 24.0537C11.8065 24.4401 12.0456 24.8379 12.2591 25.1942C12.3541 25.3529 12.5758 25.5968 12.8 25.9752C13.003 26.318 13.2081 26.7967 13.3228 26.9575C13.2569 26.7692 13.1214 26.264 12.9596 25.9038C12.8094 25.5672 12.6327 25.3752 12.5243 25.1942C12.3108 24.8379 12.0809 24.5177 11.8615 24.178C11.5588 23.7095 11.3281 23.1852 10.9972 22.7393V22.7393Z"
                                                fill="url(#paint20_linear_357_1338)" />
                                        </g>
                                    </g>
                                    <defs>
                                        <filter id="filter0_f_357_1338" x="13.1913" y="10.0982" width="6.17619"
                                            height="3.2245" filterUnits="userSpaceOnUse"
                                            color-interpolation-filters="sRGB">
                                            <feFlood flood-opacity="0" result="BackgroundImageFix" />
                                            <feBlend mode="normal" in="SourceGraphic" in2="BackgroundImageFix"
                                                result="shape" />
                                            <feGaussianBlur stdDeviation="0.191623"
                                                result="effect1_foregroundBlur_357_1338" />
                                        </filter>
                                        <filter id="filter1_f_357_1338" x="12.9998" y="8.51648" width="6.49423"
                                            height="3.85376" filterUnits="userSpaceOnUse"
                                            color-interpolation-filters="sRGB">
                                            <feFlood flood-opacity="0" result="BackgroundImageFix" />
                                            <feBlend mode="normal" in="SourceGraphic" in2="BackgroundImageFix"
                                                result="shape" />
                                            <feGaussianBlur stdDeviation="0.291564"
                                                result="effect1_foregroundBlur_357_1338" />
                                        </filter>
                                        <filter id="filter2_f_357_1338" x="17.0338" y="3.73867" width="3.17366"
                                            height="3.09786" filterUnits="userSpaceOnUse"
                                            color-interpolation-filters="sRGB">
                                            <feFlood flood-opacity="0" result="BackgroundImageFix" />
                                            <feBlend mode="normal" in="SourceGraphic" in2="BackgroundImageFix"
                                                result="shape" />
                                            <feGaussianBlur stdDeviation="0.429496"
                                                result="effect1_foregroundBlur_357_1338" />
                                        </filter>
                                        <filter id="filter3_f_357_1338" x="17.5677" y="8.61988" width="0.54763"
                                            height="0.466301" filterUnits="userSpaceOnUse"
                                            color-interpolation-filters="sRGB">
                                            <feFlood flood-opacity="0" result="BackgroundImageFix" />
                                            <feBlend mode="normal" in="SourceGraphic" in2="BackgroundImageFix"
                                                result="shape" />
                                            <feGaussianBlur stdDeviation="0.0533428"
                                                result="effect1_foregroundBlur_357_1338" />
                                        </filter>
                                        <filter id="filter4_f_357_1338" x="17.4546" y="8.12138" width="1.0613"
                                            height="1.05216" filterUnits="userSpaceOnUse"
                                            color-interpolation-filters="sRGB">
                                            <feFlood flood-opacity="0" result="BackgroundImageFix" />
                                            <feBlend mode="normal" in="SourceGraphic" in2="BackgroundImageFix"
                                                result="shape" />
                                            <feGaussianBlur stdDeviation="0.111184"
                                                result="effect1_foregroundBlur_357_1338" />
                                        </filter>
                                        <filter id="filter5_f_357_1338" x="17.8044" y="6.60651" width="1.48267"
                                            height="1.3778" filterUnits="userSpaceOnUse"
                                            color-interpolation-filters="sRGB">
                                            <feFlood flood-opacity="0" result="BackgroundImageFix" />
                                            <feBlend mode="normal" in="SourceGraphic" in2="BackgroundImageFix"
                                                result="shape" />
                                            <feGaussianBlur stdDeviation="0.0317057"
                                                result="effect1_foregroundBlur_357_1338" />
                                        </filter>
                                        <filter id="filter6_f_357_1338" x="14.1589" y="6.78493" width="1.38325"
                                            height="1.22994" filterUnits="userSpaceOnUse"
                                            color-interpolation-filters="sRGB">
                                            <feFlood flood-opacity="0" result="BackgroundImageFix" />
                                            <feBlend mode="normal" in="SourceGraphic" in2="BackgroundImageFix"
                                                result="shape" />
                                            <feGaussianBlur stdDeviation="0.0289208"
                                                result="effect1_foregroundBlur_357_1338" />
                                        </filter>
                                        <filter id="filter7_f_357_1338" x="14.1502" y="8.20794" width="0.90331"
                                            height="1.18374" filterUnits="userSpaceOnUse"
                                            color-interpolation-filters="sRGB">
                                            <feFlood flood-opacity="0" result="BackgroundImageFix" />
                                            <feBlend mode="normal" in="SourceGraphic" in2="BackgroundImageFix"
                                                result="shape" />
                                            <feGaussianBlur stdDeviation="0.109899"
                                                result="effect1_foregroundBlur_357_1338" />
                                        </filter>
                                        <filter id="filter8_f_357_1338" x="14.4983" y="11.0035" width="1.99728"
                                            height="1.63365" filterUnits="userSpaceOnUse"
                                            color-interpolation-filters="sRGB">
                                            <feFlood flood-opacity="0" result="BackgroundImageFix" />
                                            <feBlend mode="normal" in="SourceGraphic" in2="BackgroundImageFix"
                                                result="shape" />
                                            <feGaussianBlur stdDeviation="0.192591"
                                                result="effect1_foregroundBlur_357_1338" />
                                        </filter>
                                        <filter id="filter9_f_357_1338" x="13.4614" y="9.64105" width="5.32437"
                                            height="2.67493" filterUnits="userSpaceOnUse"
                                            color-interpolation-filters="sRGB">
                                            <feFlood flood-opacity="0" result="BackgroundImageFix" />
                                            <feBlend mode="normal" in="SourceGraphic" in2="BackgroundImageFix"
                                                result="shape" />
                                            <feGaussianBlur stdDeviation="0.162385"
                                                result="effect1_foregroundBlur_357_1338" />
                                        </filter>
                                        <filter id="filter10_f_357_1338" x="15.4564" y="9.68898" width="1.84588"
                                            height="2.10838" filterUnits="userSpaceOnUse"
                                            color-interpolation-filters="sRGB">
                                            <feFlood flood-opacity="0" result="BackgroundImageFix" />
                                            <feBlend mode="normal" in="SourceGraphic" in2="BackgroundImageFix"
                                                result="shape" />
                                            <feGaussianBlur stdDeviation="0.18188"
                                                result="effect1_foregroundBlur_357_1338" />
                                        </filter>
                                        <filter id="filter11_f_357_1338" x="16.1491" y="9.43236" width="0.59481"
                                            height="0.356956" filterUnits="userSpaceOnUse"
                                            color-interpolation-filters="sRGB">
                                            <feFlood flood-opacity="0" result="BackgroundImageFix" />
                                            <feBlend mode="normal" in="SourceGraphic" in2="BackgroundImageFix"
                                                result="shape" />
                                            <feGaussianBlur stdDeviation="0.0235651"
                                                result="effect1_foregroundBlur_357_1338" />
                                        </filter>
                                        <filter id="filter12_f_357_1338" x="14.9663" y="9.47826" width="0.295234"
                                            height="0.31594" filterUnits="userSpaceOnUse"
                                            color-interpolation-filters="sRGB">
                                            <feFlood flood-opacity="0" result="BackgroundImageFix" />
                                            <feBlend mode="normal" in="SourceGraphic" in2="BackgroundImageFix"
                                                result="shape" />
                                            <feGaussianBlur stdDeviation="0.0235651"
                                                result="effect1_foregroundBlur_357_1338" />
                                        </filter>
                                        <filter id="filter13_f_357_1338" x="18.2817" y="10.1046" width="0.802575"
                                            height="0.917672" filterUnits="userSpaceOnUse"
                                            color-interpolation-filters="sRGB">
                                            <feFlood flood-opacity="0" result="BackgroundImageFix" />
                                            <feBlend mode="normal" in="SourceGraphic" in2="BackgroundImageFix"
                                                result="shape" />
                                            <feGaussianBlur stdDeviation="0.073168"
                                                result="effect1_foregroundBlur_357_1338" />
                                        </filter>
                                        <filter id="filter14_f_357_1338" x="11.3064" y="14.0849" width="3.7473"
                                            height="3.54413" filterUnits="userSpaceOnUse"
                                            color-interpolation-filters="sRGB">
                                            <feFlood flood-opacity="0" result="BackgroundImageFix" />
                                            <feBlend mode="normal" in="SourceGraphic" in2="BackgroundImageFix"
                                                result="shape" />
                                            <feGaussianBlur stdDeviation="0.147995"
                                                result="effect1_foregroundBlur_357_1338" />
                                        </filter>
                                        <filter id="filter15_f_357_1338" x="15.8505" y="13.6609" width="5.7279"
                                            height="4.27009" filterUnits="userSpaceOnUse"
                                            color-interpolation-filters="sRGB">
                                            <feFlood flood-opacity="0" result="BackgroundImageFix" />
                                            <feBlend mode="normal" in="SourceGraphic" in2="BackgroundImageFix"
                                                result="shape" />
                                            <feGaussianBlur stdDeviation="0.243791"
                                                result="effect1_foregroundBlur_357_1338" />
                                        </filter>
                                        <filter id="filter16_f_357_1338" x="14.1159" y="14.19" width="2.58967"
                                            height="2.72248" filterUnits="userSpaceOnUse"
                                            color-interpolation-filters="sRGB">
                                            <feFlood flood-opacity="0" result="BackgroundImageFix" />
                                            <feBlend mode="normal" in="SourceGraphic" in2="BackgroundImageFix"
                                                result="shape" />
                                            <feGaussianBlur stdDeviation="0.168169"
                                                result="effect1_foregroundBlur_357_1338" />
                                        </filter>
                                        <filter id="filter17_f_357_1338" x="13.9307" y="16.9166" width="1.61443"
                                            height="6.54378" filterUnits="userSpaceOnUse"
                                            color-interpolation-filters="sRGB">
                                            <feFlood flood-opacity="0" result="BackgroundImageFix" />
                                            <feBlend mode="normal" in="SourceGraphic" in2="BackgroundImageFix"
                                                result="shape" />
                                            <feGaussianBlur stdDeviation="0.309774"
                                                result="effect1_foregroundBlur_357_1338" />
                                        </filter>
                                        <filter id="filter18_f_357_1338" x="18.4637" y="19.9251" width="11.0842"
                                            height="11.1821" filterUnits="userSpaceOnUse"
                                            color-interpolation-filters="sRGB">
                                            <feFlood flood-opacity="0" result="BackgroundImageFix" />
                                            <feBlend mode="normal" in="SourceGraphic" in2="BackgroundImageFix"
                                                result="shape" />
                                            <feGaussianBlur stdDeviation="1.0238"
                                                result="effect1_foregroundBlur_357_1338" />
                                        </filter>
                                        <filter id="filter19_f_357_1338" x="19.1766" y="20.6619" width="9.49689"
                                            height="9.16731" filterUnits="userSpaceOnUse"
                                            color-interpolation-filters="sRGB">
                                            <feFlood flood-opacity="0" result="BackgroundImageFix" />
                                            <feBlend mode="normal" in="SourceGraphic" in2="BackgroundImageFix"
                                                result="shape" />
                                            <feGaussianBlur stdDeviation="0.806721"
                                                result="effect1_foregroundBlur_357_1338" />
                                        </filter>
                                        <filter id="filter20_f_357_1338" x="20.514" y="21.8582" width="5.27331"
                                            height="1.19757" filterUnits="userSpaceOnUse"
                                            color-interpolation-filters="sRGB">
                                            <feFlood flood-opacity="0" result="BackgroundImageFix" />
                                            <feBlend mode="normal" in="SourceGraphic" in2="BackgroundImageFix"
                                                result="shape" />
                                            <feGaussianBlur stdDeviation="0.102615"
                                                result="effect1_foregroundBlur_357_1338" />
                                        </filter>
                                        <filter id="filter21_f_357_1338" x="20.8952" y="15.9476" width="2.85476"
                                            height="2.87433" filterUnits="userSpaceOnUse"
                                            color-interpolation-filters="sRGB">
                                            <feFlood flood-opacity="0" result="BackgroundImageFix" />
                                            <feBlend mode="normal" in="SourceGraphic" in2="BackgroundImageFix"
                                                result="shape" />
                                            <feGaussianBlur stdDeviation="0.491044"
                                                result="effect1_foregroundBlur_357_1338" />
                                        </filter>
                                        <filter id="filter22_f_357_1338" x="12.313" y="13.0716" width="0.917771"
                                            height="0.929124" filterUnits="userSpaceOnUse"
                                            color-interpolation-filters="sRGB">
                                            <feFlood flood-opacity="0" result="BackgroundImageFix" />
                                            <feBlend mode="normal" in="SourceGraphic" in2="BackgroundImageFix"
                                                result="shape" />
                                            <feGaussianBlur stdDeviation="0.137066"
                                                result="effect1_foregroundBlur_357_1338" />
                                        </filter>
                                        <filter id="filter23_f_357_1338" x="20.5213" y="21.094" width="5.44594"
                                            height="5.01323" filterUnits="userSpaceOnUse"
                                            color-interpolation-filters="sRGB">
                                            <feFlood flood-opacity="0" result="BackgroundImageFix" />
                                            <feBlend mode="normal" in="SourceGraphic" in2="BackgroundImageFix"
                                                result="shape" />
                                            <feGaussianBlur stdDeviation="0.609264"
                                                result="effect1_foregroundBlur_357_1338" />
                                        </filter>
                                        <filter id="filter24_f_357_1338" x="21.2674" y="21.8478" width="3.95386"
                                            height="2.80729" filterUnits="userSpaceOnUse"
                                            color-interpolation-filters="sRGB">
                                            <feFlood flood-opacity="0" result="BackgroundImageFix" />
                                            <feBlend mode="normal" in="SourceGraphic" in2="BackgroundImageFix"
                                                result="shape" />
                                            <feGaussianBlur stdDeviation="0.236245"
                                                result="effect1_foregroundBlur_357_1338" />
                                        </filter>
                                        <filter id="filter25_f_357_1338" x="21.5213" y="20.5735" width="3.96468"
                                            height="2.32169" filterUnits="userSpaceOnUse"
                                            color-interpolation-filters="sRGB">
                                            <feFlood flood-opacity="0" result="BackgroundImageFix" />
                                            <feBlend mode="normal" in="SourceGraphic" in2="BackgroundImageFix"
                                                result="shape" />
                                            <feGaussianBlur stdDeviation="0.219584"
                                                result="effect1_foregroundBlur_357_1338" />
                                        </filter>
                                        <filter id="filter26_f_357_1338" x="4.40063" y="19.9359" width="11.103"
                                            height="11.0324" filterUnits="userSpaceOnUse"
                                            color-interpolation-filters="sRGB">
                                            <feFlood flood-opacity="0" result="BackgroundImageFix" />
                                            <feBlend mode="normal" in="SourceGraphic" in2="BackgroundImageFix"
                                                result="shape" />
                                            <feGaussianBlur stdDeviation="0.840631"
                                                result="effect1_foregroundBlur_357_1338" />
                                        </filter>
                                        <filter id="filter27_f_357_1338" x="5.2353" y="20.5805" width="8.66947"
                                            height="8.99915" filterUnits="userSpaceOnUse"
                                            color-interpolation-filters="sRGB">
                                            <feFlood flood-opacity="0" result="BackgroundImageFix" />
                                            <feBlend mode="normal" in="SourceGraphic" in2="BackgroundImageFix"
                                                result="shape" />
                                            <feGaussianBlur stdDeviation="0.517366"
                                                result="effect1_foregroundBlur_357_1338" />
                                        </filter>
                                        <filter id="filter28_f_357_1338" x="10.8387" y="22.5807" width="2.64266"
                                            height="4.53483" filterUnits="userSpaceOnUse"
                                            color-interpolation-filters="sRGB">
                                            <feFlood flood-opacity="0" result="BackgroundImageFix" />
                                            <feBlend mode="normal" in="SourceGraphic" in2="BackgroundImageFix"
                                                result="shape" />
                                            <feGaussianBlur stdDeviation="0.0792644"
                                                result="effect1_foregroundBlur_357_1338" />
                                        </filter>
                                        <radialGradient id="paint0_radial_357_1338" cx="0" cy="0" r="1"
                                            gradientUnits="userSpaceOnUse"
                                            gradientTransform="translate(344.648 501.163) rotate(-2.41003) scale(21.9933 53.8317)">
                                            <stop stop-color="#FEFEFC" />
                                            <stop offset="0.757" stop-color="#FEFEFC" />
                                            <stop offset="1" stop-color="#D4D4D4" />
                                        </radialGradient>
                                        <radialGradient id="paint1_radial_357_1338" cx="0" cy="0" r="1"
                                            gradientUnits="userSpaceOnUse"
                                            gradientTransform="translate(616.031 524.727) rotate(-1.81001) scale(39.3757 56.9015)">
                                            <stop stop-color="#FEFEFC" />
                                            <stop offset="0.757" stop-color="#FEFEFC" />
                                            <stop offset="1" stop-color="#D4D4D4" />
                                        </radialGradient>
                                        <linearGradient id="paint2_linear_357_1338" x1="204.505" y1="89.0176"
                                            x2="208.576" y2="93.9099" gradientUnits="userSpaceOnUse">
                                            <stop stop-color="#949494" stop-opacity="0.392" />
                                            <stop offset="0.5" stop-color="#949494" />
                                            <stop offset="1" stop-color="#949494" stop-opacity="0.392" />
                                        </linearGradient>
                                        <linearGradient id="paint3_linear_357_1338" x1="38.897" y1="138.742"
                                            x2="56.7267" y2="156.983" gradientUnits="userSpaceOnUse">
                                            <stop stop-color="#646464" stop-opacity="0" />
                                            <stop offset="0.306" stop-color="#646464" stop-opacity="0.583" />
                                            <stop offset="0.47" stop-color="#646464" />
                                            <stop offset="0.728" stop-color="#646464" stop-opacity="0.257" />
                                            <stop offset="1" stop-color="#646464" stop-opacity="0" />
                                        </linearGradient>
                                        <linearGradient id="paint4_linear_357_1338" x1="-18.4522" y1="125.676"
                                            x2="-3.57534" y2="141.977" gradientUnits="userSpaceOnUse">
                                            <stop stop-color="#646464" stop-opacity="0" />
                                            <stop offset="0.306" stop-color="#646464" stop-opacity="0.583" />
                                            <stop offset="0.47" stop-color="#646464" />
                                            <stop offset="0.728" stop-color="#646464" stop-opacity="0.257" />
                                            <stop offset="1" stop-color="#646464" stop-opacity="0" />
                                        </linearGradient>
                                        <linearGradient id="paint5_linear_357_1338" x1="90.4424" y1="106.712"
                                            x2="95.5077" y2="112.355" gradientUnits="userSpaceOnUse">
                                            <stop stop-color="#757574" stop-opacity="0" />
                                            <stop offset="0.263" stop-color="#757574" />
                                            <stop offset="0.5" stop-color="#757574" />
                                            <stop offset="1" stop-color="#757574" stop-opacity="0" />
                                        </linearGradient>
                                        <radialGradient id="paint6_radial_357_1338" cx="0" cy="0" r="1"
                                            gradientUnits="userSpaceOnUse"
                                            gradientTransform="translate(1622.42 -258.074) rotate(-22.428) scale(169.968 59.0502)">
                                            <stop stop-color="#D2940A" />
                                            <stop offset="0.751" stop-color="#D89C08" />
                                            <stop offset="0.866" stop-color="#B67E07" />
                                            <stop offset="1" stop-color="#946106" />
                                        </radialGradient>
                                        <linearGradient id="paint7_linear_357_1338" x1="263.308" y1="434.586"
                                            x2="564.266" y2="429.915" gradientUnits="userSpaceOnUse">
                                            <stop stop-color="#AD780A" />
                                            <stop offset="0.12" stop-color="#D89E08" />
                                            <stop offset="0.255" stop-color="#EDB80B" />
                                            <stop offset="0.392" stop-color="#EBC80D" />
                                            <stop offset="0.527" stop-color="#F5D838" />
                                            <stop offset="0.769" stop-color="#F6D811" />
                                            <stop offset="1" stop-color="#F5CD31" />
                                        </linearGradient>
                                        <radialGradient id="paint8_radial_357_1338" cx="0" cy="0" r="1"
                                            gradientUnits="userSpaceOnUse"
                                            gradientTransform="translate(55.0751 32.0747) scale(1.61678 0.494973)">
                                            <stop stop-color="#3A2903" />
                                            <stop offset="0.555" stop-color="#735208" />
                                            <stop offset="1" stop-color="#AC8C04" />
                                        </radialGradient>
                                        <radialGradient id="paint9_radial_357_1338" cx="0" cy="0" r="1"
                                            gradientUnits="userSpaceOnUse"
                                            gradientTransform="translate(27.7 44.6442) scale(0.308497 0.365707)">
                                            <stop stop-color="#3A2903" />
                                            <stop offset="0.555" stop-color="#735208" />
                                            <stop offset="1" stop-color="#AC8C04" />
                                        </radialGradient>
                                        <linearGradient id="paint10_linear_357_1338" x1="130.204" y1="108.329"
                                            x2="130.524" y2="109.991" gradientUnits="userSpaceOnUse">
                                            <stop stop-color="#F5CE2D" />
                                            <stop offset="1" stop-color="#D79B08" />
                                        </linearGradient>
                                        <radialGradient id="paint11_radial_357_1338" cx="0" cy="0" r="1"
                                            gradientUnits="userSpaceOnUse"
                                            gradientTransform="translate(-699.936 511.614) rotate(180) scale(60.3644 61.7286)">
                                            <stop />
                                            <stop offset="1" stop-opacity="0.25" />
                                        </radialGradient>
                                        <radialGradient id="paint12_radial_357_1338" cx="0" cy="0" r="1"
                                            gradientUnits="userSpaceOnUse"
                                            gradientTransform="translate(1474.34 608.301) scale(130.182 68.8904)">
                                            <stop />
                                            <stop offset="1" stop-opacity="0.25" />
                                        </radialGradient>
                                        <radialGradient id="paint13_radial_357_1338" cx="0" cy="0" r="1"
                                            gradientUnits="userSpaceOnUse"
                                            gradientTransform="translate(517.148 506.954) scale(20.7898 23.7652)">
                                            <stop />
                                            <stop offset="1" stop-opacity="0.25" />
                                        </radialGradient>
                                        <linearGradient id="paint14_linear_357_1338" x1="3398.4" y1="2950.45"
                                            x2="3782.55" y2="2346.56" gradientUnits="userSpaceOnUse">
                                            <stop stop-color="#3E2A06" />
                                            <stop offset="1" stop-color="#AD780A" />
                                        </linearGradient>
                                        <linearGradient id="paint15_linear_357_1338" x1="240.345" y1="249.88"
                                            x2="240.163" y2="260.014" gradientUnits="userSpaceOnUse">
                                            <stop stop-color="#F3CD0C" />
                                            <stop offset="1" stop-color="#F3CD0C" stop-opacity="0" />
                                        </linearGradient>
                                        <radialGradient id="paint16_radial_357_1338" cx="0" cy="0" r="1"
                                            gradientUnits="userSpaceOnUse"
                                            gradientTransform="translate(1128.41 1468.59) rotate(15) scale(68.649 61.7055)">
                                            <stop stop-color="#110800" />
                                            <stop offset="0.591" stop-color="#A65A00" stop-opacity="0.8" />
                                            <stop offset="1" stop-color="#FF921E" stop-opacity="0" />
                                        </radialGradient>
                                        <radialGradient id="paint17_radial_357_1338" cx="0" cy="0" r="1"
                                            gradientUnits="userSpaceOnUse"
                                            gradientTransform="translate(1128.41 1067.87) rotate(10.9628) scale(67.5425 45.3393)">
                                            <stop stop-color="#110800" />
                                            <stop offset="0.591" stop-color="#A65A00" stop-opacity="0.8" />
                                            <stop offset="1" stop-color="#FF921E" stop-opacity="0" />
                                        </radialGradient>
                                        <radialGradient id="paint18_radial_357_1338" cx="0" cy="0" r="1"
                                            gradientUnits="userSpaceOnUse"
                                            gradientTransform="translate(422.573 265.911) rotate(23.5217) scale(24.9049 5.38437)">
                                            <stop stop-color="#7C7C7C" />
                                            <stop offset="1" stop-color="#7C7C7C" stop-opacity="0.33" />
                                        </radialGradient>
                                        <linearGradient id="paint19_linear_357_1338" x1="1042.75" y1="2533.24"
                                            x2="1438.27" y2="3204.12" gradientUnits="userSpaceOnUse">
                                            <stop stop-color="#B98309" />
                                            <stop offset="1" stop-color="#382605" />
                                        </linearGradient>
                                        <linearGradient id="paint20_linear_357_1338" x1="408.769" y1="1381.94"
                                            x2="485.208" y2="1461.27" gradientUnits="userSpaceOnUse">
                                            <stop stop-color="#EBC40C" />
                                            <stop offset="1" stop-color="#EBC40C" stop-opacity="0" />
                                        </linearGradient>
                                        <clipPath id="clip0_357_1338">
                                            <rect width="26.4" height="26.4" fill="white"
                                                transform="translate(3.3 3.2998)" />
                                        </clipPath>
                                    </defs>
                                </svg>