<svg width="102" height="70" viewBox="0 0 102 70" fill="none" xmlns="http://www.w3.org/2000/svg">
<g opacity="0.7">
<g clip-path="url(#clip0_91_583)">
<path d="M51 30.2222C48.6425 30.2222 46.3816 29.2857 44.7146 27.6187C43.0476 25.9517 42.1111 23.6908 42.1111 21.3333V10.6667C42.1111 8.30918 43.0476 6.04826 44.7146 4.38127C46.3816 2.71428 48.6425 1.77777 51 1.77777C53.3575 1.77777 55.6184 2.71428 57.2854 4.38127C58.9524 6.04826 59.8889 8.30918 59.8889 10.6667V21.3333C59.8889 22.5006 59.659 23.6565 59.2123 24.735C58.7656 25.8134 58.1108 26.7933 57.2854 27.6187C56.46 28.4441 55.4801 29.0989 54.4016 29.5456C53.3232 29.9923 52.1673 30.2222 51 30.2222ZM51 3.55555C49.114 3.55555 47.3053 4.30475 45.9717 5.63835C44.6381 6.97194 43.8889 8.78068 43.8889 10.6667V21.3333C43.8889 23.2193 44.6381 25.0281 45.9717 26.3616C47.3053 27.6952 49.114 28.4444 51 28.4444C52.886 28.4444 54.6947 27.6952 56.0283 26.3616C57.3619 25.0281 58.1111 23.2193 58.1111 21.3333V10.6667C58.1111 8.78068 57.3619 6.97194 56.0283 5.63835C54.6947 4.30475 52.886 3.55555 51 3.55555Z" fill="white"/>
<path d="M51 13.3333C50.7643 13.3333 50.5382 13.2397 50.3715 13.073C50.2048 12.9063 50.1111 12.6802 50.1111 12.4444V8.88889C50.1111 8.65314 50.2048 8.42705 50.3715 8.26035C50.5382 8.09365 50.7643 8 51 8C51.2358 8 51.4618 8.09365 51.6285 8.26035C51.7952 8.42705 51.8889 8.65314 51.8889 8.88889V12.4444C51.8889 12.6802 51.7952 12.9063 51.6285 13.073C51.4618 13.2397 51.2358 13.3333 51 13.3333Z" fill="white"/>
</g>
<path d="M15.3427 59V48.92H16.5887V57.817H21.2647V59H15.3427ZM25.7248 59.21C24.9828 59.21 24.3341 59.0467 23.7788 58.72C23.2281 58.3887 22.7988 57.929 22.4908 57.341C22.1828 56.7483 22.0288 56.0577 22.0288 55.269C22.0288 54.443 22.1804 53.729 22.4838 53.127C22.7871 52.5203 23.2094 52.0537 23.7508 51.727C24.2968 51.3957 24.9361 51.23 25.6688 51.23C26.4294 51.23 27.0758 51.405 27.6078 51.755C28.1444 52.105 28.5458 52.6043 28.8118 53.253C29.0824 53.9017 29.1991 54.674 29.1618 55.57H27.9018V55.122C27.8878 54.1933 27.6988 53.5003 27.3348 53.043C26.9708 52.581 26.4294 52.35 25.7108 52.35C24.9408 52.35 24.3551 52.5973 23.9538 53.092C23.5524 53.5867 23.3518 54.296 23.3518 55.22C23.3518 56.1113 23.5524 56.802 23.9538 57.292C24.3551 57.782 24.9268 58.027 25.6688 58.027C26.1681 58.027 26.6021 57.9127 26.9708 57.684C27.3394 57.4553 27.6288 57.1263 27.8388 56.697L29.0358 57.11C28.7418 57.7773 28.2984 58.2953 27.7058 58.664C27.1178 59.028 26.4574 59.21 25.7248 59.21ZM22.9318 55.57V54.569H28.5178V55.57H22.9318ZM32.7325 59.21C32.1678 59.21 31.6942 59.1073 31.3115 58.902C30.9335 58.692 30.6465 58.4167 30.4505 58.076C30.2592 57.7353 30.1635 57.362 30.1635 56.956C30.1635 56.5593 30.2382 56.2163 30.3875 55.927C30.5415 55.633 30.7562 55.3903 31.0315 55.199C31.3068 55.003 31.6358 54.849 32.0185 54.737C32.3778 54.639 32.7792 54.555 33.2225 54.485C33.6705 54.4103 34.1232 54.3427 34.5805 54.282C35.0378 54.2213 35.4648 54.163 35.8615 54.107L35.4135 54.366C35.4275 53.694 35.2922 53.197 35.0075 52.875C34.7275 52.553 34.2422 52.392 33.5515 52.392C33.0942 52.392 32.6928 52.497 32.3475 52.707C32.0068 52.9123 31.7665 53.2483 31.6265 53.715L30.4435 53.358C30.6255 52.6953 30.9778 52.175 31.5005 51.797C32.0232 51.419 32.7115 51.23 33.5655 51.23C34.2515 51.23 34.8395 51.3537 35.3295 51.601C35.8242 51.8437 36.1788 52.2123 36.3935 52.707C36.5008 52.9403 36.5685 53.1947 36.5965 53.47C36.6245 53.7407 36.6385 54.0253 36.6385 54.324V59H35.5325V57.187L35.7915 57.355C35.5068 57.9663 35.1078 58.4283 34.5945 58.741C34.0858 59.0537 33.4652 59.21 32.7325 59.21ZM32.9215 58.167C33.3695 58.167 33.7568 58.0877 34.0835 57.929C34.4148 57.7657 34.6808 57.5533 34.8815 57.292C35.0822 57.026 35.2128 56.7367 35.2735 56.424C35.3435 56.1907 35.3808 55.9317 35.3855 55.647C35.3948 55.3577 35.3995 55.136 35.3995 54.982L35.8335 55.171C35.4275 55.227 35.0285 55.2807 34.6365 55.332C34.2445 55.3833 33.8735 55.4393 33.5235 55.5C33.1735 55.556 32.8585 55.6237 32.5785 55.703C32.3732 55.7683 32.1795 55.8523 31.9975 55.955C31.8202 56.0577 31.6755 56.1907 31.5635 56.354C31.4562 56.5127 31.4025 56.711 31.4025 56.949C31.4025 57.1543 31.4538 57.3503 31.5565 57.537C31.6638 57.7237 31.8272 57.8753 32.0465 57.992C32.2705 58.1087 32.5622 58.167 32.9215 58.167ZM38.4585 59V51.44H39.5715V53.267L39.3895 53.029C39.4782 52.7957 39.5925 52.581 39.7325 52.385C39.8772 52.189 40.0382 52.028 40.2155 51.902C40.4115 51.7433 40.6332 51.622 40.8805 51.538C41.1278 51.454 41.3798 51.405 41.6365 51.391C41.8932 51.3723 42.1335 51.3887 42.3575 51.44V52.609C42.0962 52.539 41.8092 52.5203 41.4965 52.553C41.1838 52.5857 40.8945 52.7 40.6285 52.896C40.3858 53.0687 40.1968 53.2787 40.0615 53.526C39.9308 53.7733 39.8398 54.0417 39.7885 54.331C39.7372 54.6157 39.7115 54.9073 39.7115 55.206V59H38.4585ZM49.0642 59V55.213C49.0642 54.8537 49.0315 54.5083 48.9662 54.177C48.9055 53.8457 48.7958 53.5493 48.6372 53.288C48.4832 53.022 48.2732 52.812 48.0072 52.658C47.7458 52.504 47.4145 52.427 47.0132 52.427C46.7005 52.427 46.4158 52.4807 46.1592 52.588C45.9072 52.6907 45.6902 52.8493 45.5082 53.064C45.3262 53.2787 45.1838 53.5493 45.0812 53.876C44.9832 54.198 44.9342 54.5783 44.9342 55.017L44.1152 54.765C44.1152 54.0323 44.2458 53.4047 44.5072 52.882C44.7732 52.3547 45.1442 51.951 45.6202 51.671C46.1008 51.3863 46.6655 51.244 47.3142 51.244C47.8042 51.244 48.2218 51.321 48.5672 51.475C48.9125 51.629 49.1995 51.8343 49.4282 52.091C49.6568 52.343 49.8365 52.6277 49.9672 52.945C50.0978 53.2577 50.1888 53.5773 50.2402 53.904C50.2962 54.226 50.3242 54.5317 50.3242 54.821V59H49.0642ZM43.6742 59V51.44H44.7942V53.463H44.9342V59H43.6742ZM63.9838 59L63.9908 54.163C63.9908 53.5983 63.8391 53.1573 63.5358 52.84C63.2371 52.518 62.8475 52.357 62.3668 52.357C62.0868 52.357 61.8208 52.4223 61.5688 52.553C61.3168 52.679 61.1115 52.8797 60.9528 53.155C60.7941 53.4257 60.7148 53.7733 60.7148 54.198L60.0568 53.932C60.0475 53.3953 60.1571 52.9263 60.3858 52.525C60.6191 52.119 60.9365 51.804 61.3378 51.58C61.7391 51.356 62.1918 51.244 62.6958 51.244C63.4845 51.244 64.1051 51.4843 64.5578 51.965C65.0105 52.441 65.2368 53.0827 65.2368 53.89L65.2298 59H63.9838ZM54.9398 59V51.44H56.0528V53.463H56.1928V59H54.9398ZM59.4688 59L59.4758 54.212C59.4758 53.6333 59.3265 53.1807 59.0278 52.854C58.7291 52.5227 58.3325 52.357 57.8378 52.357C57.3478 52.357 56.9511 52.525 56.6478 52.861C56.3445 53.197 56.1928 53.6427 56.1928 54.198L55.5348 53.806C55.5348 53.316 55.6515 52.8773 55.8848 52.49C56.1181 52.1027 56.4355 51.7993 56.8368 51.58C57.2381 51.356 57.6931 51.244 58.2018 51.244C58.7105 51.244 59.1538 51.3513 59.5318 51.566C59.9098 51.7807 60.2015 52.0887 60.4068 52.49C60.6121 52.8867 60.7148 53.3603 60.7148 53.911L60.7078 59H59.4688ZM70.2117 59.21C69.4604 59.21 68.8117 59.0397 68.2657 58.699C67.7244 58.3583 67.3067 57.887 67.0127 57.285C66.7187 56.683 66.5717 55.9923 66.5717 55.213C66.5717 54.4197 66.7211 53.7243 67.0197 53.127C67.3184 52.5297 67.7407 52.0653 68.2867 51.734C68.8327 51.398 69.4744 51.23 70.2117 51.23C70.9677 51.23 71.6187 51.4003 72.1647 51.741C72.7107 52.077 73.1284 52.546 73.4177 53.148C73.7117 53.7453 73.8587 54.4337 73.8587 55.213C73.8587 56.0017 73.7117 56.697 73.4177 57.299C73.1237 57.8963 72.7037 58.3653 72.1577 58.706C71.6117 59.042 70.9631 59.21 70.2117 59.21ZM70.2117 58.027C70.9957 58.027 71.5791 57.7657 71.9617 57.243C72.3444 56.7203 72.5357 56.0437 72.5357 55.213C72.5357 54.359 72.3421 53.68 71.9547 53.176C71.5674 52.6673 70.9864 52.413 70.2117 52.413C69.6844 52.413 69.2504 52.532 68.9097 52.77C68.5691 53.008 68.3147 53.337 68.1467 53.757C67.9787 54.177 67.8947 54.6623 67.8947 55.213C67.8947 56.0623 68.0907 56.7437 68.4827 57.257C68.8747 57.7703 69.4511 58.027 70.2117 58.027ZM75.3999 59V51.44H76.5129V53.267L76.3309 53.029C76.4196 52.7957 76.5339 52.581 76.6739 52.385C76.8186 52.189 76.9796 52.028 77.1569 51.902C77.3529 51.7433 77.5746 51.622 77.8219 51.538C78.0693 51.454 78.3213 51.405 78.5779 51.391C78.8346 51.3723 79.0749 51.3887 79.2989 51.44V52.609C79.0376 52.539 78.7506 52.5203 78.4379 52.553C78.1253 52.5857 77.8359 52.7 77.5699 52.896C77.3273 53.0687 77.1383 53.2787 77.0029 53.526C76.8723 53.7733 76.7813 54.0417 76.7299 54.331C76.6786 54.6157 76.6529 54.9073 76.6529 55.206V59H75.3999ZM83.7619 59.21C83.0199 59.21 82.3712 59.0467 81.8159 58.72C81.2652 58.3887 80.8359 57.929 80.5279 57.341C80.2199 56.7483 80.0659 56.0577 80.0659 55.269C80.0659 54.443 80.2175 53.729 80.5209 53.127C80.8242 52.5203 81.2465 52.0537 81.7879 51.727C82.3339 51.3957 82.9732 51.23 83.7059 51.23C84.4665 51.23 85.1129 51.405 85.6449 51.755C86.1815 52.105 86.5829 52.6043 86.8489 53.253C87.1195 53.9017 87.2362 54.674 87.1989 55.57H85.9389V55.122C85.9249 54.1933 85.7359 53.5003 85.3719 53.043C85.0079 52.581 84.4665 52.35 83.7479 52.35C82.9779 52.35 82.3922 52.5973 81.9909 53.092C81.5895 53.5867 81.3889 54.296 81.3889 55.22C81.3889 56.1113 81.5895 56.802 81.9909 57.292C82.3922 57.782 82.9639 58.027 83.7059 58.027C84.2052 58.027 84.6392 57.9127 85.0079 57.684C85.3765 57.4553 85.6659 57.1263 85.8759 56.697L87.0729 57.11C86.7789 57.7773 86.3355 58.2953 85.7429 58.664C85.1549 59.028 84.4945 59.21 83.7619 59.21ZM80.9689 55.57V54.569H86.5549V55.57H80.9689Z" fill="white"/>
</g>
<defs>
<clipPath id="clip0_91_583">
<rect width="32" height="32" fill="white" transform="translate(35)"/>
</clipPath>
</defs>
</svg>
