<svg width="70" height="70" viewBox="0 0 70 70" fill="none" xmlns="http://www.w3.org/2000/svg">
<path d="M29.5355 64.3294C45.848 67.2335 61.4252 56.3645 64.3293 40.052C67.2334 23.7395 56.3645 8.16233 40.0519 5.25822C23.7394 2.3541 8.16225 13.2231 5.25814 29.5356C2.35403 45.8481 13.223 61.4253 29.5355 64.3294Z" fill="#E84142"/>
<path fill-rule="evenodd" clip-rule="evenodd" d="M24.3317 45.0577L18.5997 44.0372C17.3952 43.8228 16.8003 43.7168 16.4788 43.4202C16.1322 43.0964 15.9677 42.633 16.0214 42.1633C16.0757 41.7316 16.4663 41.2619 17.2473 40.323L35.8416 17.8959C36.6325 16.9438 37.0315 16.4684 37.4509 16.3409C37.9019 16.2042 38.3954 16.292 38.7715 16.576C39.1212 16.8404 39.3316 17.4243 39.7452 18.5909L41.7506 24.1879L41.7608 24.2164C42.2089 25.4687 42.4362 26.1038 42.4725 26.7343C42.5145 27.423 42.3905 28.1195 42.1134 28.7514C41.8598 29.335 41.4299 29.8574 40.5643 30.8935L30.7904 42.7116L30.7651 42.7419C29.9064 43.7712 29.4712 44.2928 28.9333 44.6491C28.3474 45.039 27.6832 45.2798 26.988 45.3585C26.3561 45.4181 25.6813 45.2979 24.3317 45.0577ZM38.807 47.6347L47.0203 49.0969C48.232 49.3126 48.8416 49.4212 49.2472 49.2467C49.6841 49.0623 50.007 48.678 50.1116 48.2178C50.2062 47.8074 50.0046 47.2533 49.6095 46.1677C49.5958 46.1307 49.5822 46.0931 49.5683 46.0548L46.7072 38.2844L46.6745 38.1968C46.2704 37.1162 46.0665 36.5706 45.7256 36.313C45.3498 36.029 44.8633 35.9424 44.4124 36.0793C44.0002 36.208 43.6038 36.6689 42.8169 37.5992L37.4644 43.9075L37.446 43.9292C36.6615 44.8583 36.2694 45.3226 36.2154 45.7512C36.1617 46.2208 36.325 46.6913 36.6716 47.0151C36.9858 47.3105 37.5953 47.419 38.807 47.6347Z" fill="white"/>
</svg>
