<svg width="74" height="74" viewBox="0 0 74 74" fill="none" xmlns="http://www.w3.org/2000/svg">
<path d="M41.9471 68.3394C59.3872 65.4758 71.2029 49.0174 68.3393 31.5773C65.4756 14.1373 49.0172 2.32148 31.5771 5.18514C14.1371 8.0488 2.32131 24.5072 5.18498 41.9473C8.04864 59.3873 24.507 71.2031 41.9471 68.3394Z" fill="#F3BA2F"/>
<path d="M34.7325 24.402L27.4103 34.6013L21.4761 30.3404L33.0585 14.2071L49.197 25.7929L44.9366 31.7273L34.7325 24.402Z" fill="white"/>
<path d="M18.4675 34.5304L14.207 40.4657L20.1411 44.7253L24.4017 38.7907L18.4675 34.5304Z" fill="white"/>
<path d="M38.7916 49.1224L28.5924 41.8007L24.3239 47.7289L40.4656 59.3173L52.0519 43.1793L52.054 43.1761L46.1172 38.9188L38.7916 49.1224Z" fill="white"/>
<path d="M53.3832 28.8001L49.1226 34.7348L55.0571 38.9951L59.3175 33.0604L53.3832 28.8001Z" fill="white"/>
<path d="M41.9337 35.9102L41.9319 35.9105L41.937 35.9122L41.935 35.9155L37.6118 41.9374L31.5951 37.6172L31.5866 37.611L31.5927 37.6028L35.9122 31.5869L41.9337 35.9102Z" fill="white"/>
</svg>
