<svg width="92" height="92" viewBox="0 0 92 92" fill="none" xmlns="http://www.w3.org/2000/svg">
<path d="M77.661 64.9594C75.1306 69.2031 71.7728 72.8932 67.7877 75.8099C63.8025 78.7265 59.2714 80.8102 54.4641 81.9367C49.7276 83.2277 44.7773 83.5378 39.9158 82.848C35.0542 82.1582 30.3836 80.4831 26.1895 77.9251C21.9347 75.4551 18.2325 72.1353 15.3131 68.1722C12.3938 64.2092 10.3198 59.6876 9.22018 54.8887C6.58736 44.4369 7.89416 34.8484 13.1406 26.1232C15.6258 21.8877 18.9478 18.2046 22.9034 15.2987C26.8591 12.3928 31.3655 10.3253 36.1473 9.22227C40.9118 7.93396 45.8871 7.61844 50.7771 8.29448C55.6672 8.97052 60.3721 10.6243 64.612 13.1575C73.527 18.3154 79.3009 26.1203 81.9337 36.5721C83.234 41.3423 83.5256 46.331 82.7898 51.2191C82.0541 56.1073 80.3072 60.7872 77.661 64.9594V64.9594Z" fill="#C8C8C8"/>
<path d="M39.2429 20.5889L30.9412 49.0402L43.7757 38.5833L39.2429 20.5889Z" fill="#8B8B8B"/>
<path d="M43.7756 38.5835L30.9411 49.0403L47.7097 54.2012L43.7756 38.5835Z" fill="#393939"/>
<path d="M39.2429 20.5889L43.7757 38.5833L60.0185 41.7155L39.2429 20.5889Z" fill="#343434"/>
<path d="M43.7756 38.5835L47.7097 54.2012L60.0184 41.7157L43.7756 38.5835Z" fill="#161616"/>
<path d="M31.6538 51.8691L51.5028 69.2584L48.4243 57.0371L31.6538 51.8691Z" fill="#8B8B8B"/>
<path d="M60.7451 44.541L48.4243 57.0371L51.5028 69.2584L60.7451 44.541Z" fill="#343434"/>
</svg>
