<svg width="126" height="84" viewBox="0 0 126 84" fill="none" xmlns="http://www.w3.org/2000/svg">
<g filter="url(#filter0_bd_288_1836)">
<rect x="20.7429" y="4.60938" width="94" height="41" rx="20.5" transform="rotate(11.0935 20.7429 4.60938)" fill="#251F1F"/>
<g clip-path="url(#clip0_288_1836)">
<path d="M42.3609 42.4766C49.1355 43.8049 55.7042 39.3898 57.0325 32.6153C58.3608 25.8407 53.9458 19.272 47.1712 17.9437C40.3967 16.6154 33.828 21.0304 32.4997 27.805C31.1713 34.5796 35.5864 41.1483 42.3609 42.4766Z" fill="#F4B731"/>
<path fill-rule="evenodd" clip-rule="evenodd" d="M40.8145 23.0664L45.8376 24.0513C48.8927 24.6503 50.8907 26.7267 51.2897 29.2554L52.8545 29.5622L52.5747 30.9889L51.3396 30.7468C51.3192 30.9768 51.2864 31.2092 51.2407 31.4423L51.2338 31.4776C51.1824 31.7398 51.1162 31.9959 51.036 32.2429L52.281 32.487L52.0014 33.913L50.4068 33.6003C49.0664 35.7545 46.4539 36.9102 43.4333 36.3179L38.4094 35.3328L39.1807 31.3991L37.435 31.0569L37.7146 29.6309L39.4603 29.9732L39.754 28.4751L38.0083 28.1329L38.2879 26.7069L40.0336 27.0492L40.8145 23.0664V23.0664ZM40.5844 31.6744L40.064 34.3285L43.6826 35.038C45.9166 35.4761 47.7842 34.738 48.8681 33.2986L40.5844 31.6744V31.6744ZM49.5778 31.957L40.864 30.2484L41.1577 28.7504L49.8746 30.4595C49.8599 30.701 49.8294 30.9458 49.781 31.1927L49.7742 31.2272C49.7247 31.4794 49.6589 31.7221 49.5779 31.9562L49.5778 31.957ZM45.5881 25.3279C47.8313 25.7678 49.2817 27.1858 49.7328 28.9493L41.4376 27.3229L41.9678 24.6189L45.5864 25.3284L45.5881 25.3279Z" fill="white"/>
</g>
<path d="M69.1027 42.1151L65.2402 41.3578L67.5491 29.582L71.4116 30.3393C73.191 30.6882 74.51 31.5284 75.3686 32.8598C76.2271 34.1912 76.4942 35.6838 76.1699 37.3377C75.8395 39.0229 75.0234 40.3303 73.7215 41.2598C72.4217 42.1789 70.8821 42.464 69.1027 42.1151ZM69.2926 31.75L67.6732 40.0087L69.4004 40.3474C70.5518 40.5731 71.5561 40.357 72.4134 39.699C73.2728 39.0305 73.8184 38.1049 74.0503 36.9221C74.2761 35.7706 74.1153 34.7337 73.5679 33.8111C73.0205 32.8885 72.1711 32.3144 71.0197 32.0886L69.2926 31.75ZM79.2258 41.1162L77.5476 43.7709L75.9461 43.4569L76.1616 42.3579L82.4943 32.5124L84.3784 32.8818L86.5394 44.2296L86.2931 45.4857L84.6131 45.1563L84.0617 42.0644L79.2258 41.1162ZM80.1894 39.528L83.7692 40.2299L82.8936 35.2157L80.1894 39.528ZM90.2973 46.2708L88.2091 45.8614L90.518 34.0856L92.6063 34.4951L90.2973 46.2708Z" fill="white"/>
<path d="M69.1027 42.1151L65.2402 41.3578L67.5491 29.582L71.4116 30.3393C73.191 30.6882 74.51 31.5284 75.3686 32.8598C76.2271 34.1912 76.4942 35.6838 76.1699 37.3377C75.8395 39.0229 75.0234 40.3303 73.7215 41.2598C72.4217 42.1789 70.8821 42.464 69.1027 42.1151ZM69.2926 31.75L67.6732 40.0087L69.4004 40.3474C70.5518 40.5731 71.5561 40.357 72.4134 39.699C73.2728 39.0305 73.8184 38.1049 74.0503 36.9221C74.2761 35.7706 74.1153 34.7337 73.5679 33.8111C73.0205 32.8885 72.1711 32.3144 71.0197 32.0886L69.2926 31.75ZM79.2258 41.1162L77.5476 43.7709L75.9461 43.4569L76.1616 42.3579L82.4943 32.5124L84.3784 32.8818L86.5394 44.2296L86.2931 45.4857L84.6131 45.1563L84.0617 42.0644L79.2258 41.1162ZM80.1894 39.528L83.7692 40.2299L82.8936 35.2157L80.1894 39.528ZM90.2973 46.2708L88.2091 45.8614L90.518 34.0856L92.6063 34.4951L90.2973 46.2708Z" fill="#DDDDDD"/>
</g>
<defs>
<filter id="filter0_bd_288_1836" x="-107.146" y="-115.391" width="340.133" height="298.32" filterUnits="userSpaceOnUse" color-interpolation-filters="sRGB">
<feFlood flood-opacity="0" result="BackgroundImageFix"/>
<feGaussianBlur in="BackgroundImageFix" stdDeviation="60"/>
<feComposite in2="SourceAlpha" operator="in" result="effect1_backgroundBlur_288_1836"/>
<feColorMatrix in="SourceAlpha" type="matrix" values="0 0 0 0 0 0 0 0 0 0 0 0 0 0 0 0 0 0 127 0" result="hardAlpha"/>
<feOffset dy="8"/>
<feGaussianBlur stdDeviation="8"/>
<feColorMatrix type="matrix" values="0 0 0 0 0.168627 0 0 0 0 0.2 0 0 0 0 0.219608 0 0 0 0.08 0"/>
<feBlend mode="normal" in2="effect1_backgroundBlur_288_1836" result="effect2_dropShadow_288_1836"/>
<feBlend mode="normal" in="SourceGraphic" in2="effect2_dropShadow_288_1836" result="shape"/>
</filter>
<clipPath id="clip0_288_1836">
<rect width="25" height="25" fill="white" transform="translate(34.9048 15.5386) rotate(11.0935)"/>
</clipPath>
</defs>
</svg>
