<svg width="142" height="83" viewBox="0 0 142 83" fill="none" xmlns="http://www.w3.org/2000/svg">
<g filter="url(#filter0_bd_288_1830)">
<rect x="14.0083" y="20.4312" width="110" height="41" rx="20.5" transform="rotate(-7.41783 14.0083 20.4312)" fill="#251F1F"/>
<g clip-path="url(#clip0_288_1830)">
<path d="M46.5302 49.4753C53.376 48.584 58.2031 42.3119 57.3118 35.4661C56.4205 28.6203 50.1484 23.7933 43.3026 24.6845C36.4568 25.5758 31.6298 31.8479 32.521 38.6937C33.4123 45.5395 39.6844 50.3666 46.5302 49.4753Z" fill="#26A17B"/>
<path fill-rule="evenodd" clip-rule="evenodd" d="M46.3307 38.1277L46.3305 38.1262C46.246 38.1435 45.8102 38.227 44.8302 38.3546C44.0477 38.4565 43.4939 38.5049 43.299 38.5209L43.2993 38.5232C40.27 38.7829 37.9535 38.5511 37.8718 37.9236C37.7902 37.2968 39.9701 36.4797 42.9646 35.9527L43.2313 38.001C43.4299 37.9894 43.9982 37.9492 44.7776 37.8478C45.7127 37.726 46.1763 37.6263 46.2629 37.6071L45.9963 35.5596C49.0196 35.3023 51.3307 35.5347 51.4122 36.1607C51.4939 36.7882 49.3192 37.6031 46.3307 38.1277V38.1277ZM45.9686 35.3465L45.7299 33.5136L49.9242 32.9675L49.5603 30.1723L38.1403 31.6591L38.5042 34.4543L42.6985 33.9082L42.937 35.7404C39.5487 36.3407 37.0731 37.35 37.1784 38.1588C37.2837 38.9676 39.9351 39.3086 43.3643 39.0221L44.129 44.896L47.1605 44.5013L46.3955 38.6259C49.7784 38.0263 52.2479 37.0186 52.1427 36.2106C52.0375 35.4025 49.3923 35.0607 45.9686 35.3465" fill="white"/>
</g>
<path d="M72.5279 40.7379C71.1211 40.9211 69.9223 40.6361 68.9315 39.8831C67.9512 39.1286 67.3784 38.1168 67.2132 36.8475L66.2258 29.2635L68.3518 28.9867L69.3413 36.5866C69.4418 37.3587 69.7592 37.9789 70.2935 38.4472C70.8369 38.9035 71.5053 39.08 72.2986 38.9768C73.1342 38.868 73.7616 38.5227 74.1807 37.9411C74.609 37.3475 74.7728 36.6646 74.6723 35.8925L73.6828 28.2926L75.6344 28.0386L76.6218 35.6226C76.787 36.8918 76.4924 38.0166 75.738 38.9969C74.9836 39.9772 73.9136 40.5575 72.5279 40.7379ZM83.6415 39.291C82.6155 39.4246 81.7167 39.3372 80.9451 39.0289C80.1827 38.7086 79.6293 38.259 79.285 37.6799L79.1363 36.5376L80.7388 36.3289C80.97 36.7829 81.3157 37.1251 81.776 37.3556C82.2455 37.5742 82.8028 37.6414 83.4481 37.5574C84.0616 37.4776 84.544 37.2588 84.8954 36.9011C85.2469 36.5434 85.3895 36.1107 85.3234 35.603C85.2656 35.1587 85.0654 34.819 84.7229 34.584C84.3789 34.3383 83.8568 34.1697 83.1564 34.078L82.1735 33.9639C79.9574 33.7146 78.7344 32.7067 78.5044 30.9403C78.3681 29.8931 78.6348 29.0086 79.3045 28.2868C79.977 27.5861 80.9109 27.158 82.1061 27.0024C83.1004 26.8729 83.939 26.952 84.6218 27.2396C85.3033 27.5166 85.7805 27.96 86.0535 28.5698L86.2023 29.7122L84.5839 29.9229C84.1822 28.9856 83.3996 28.5927 82.2361 28.7442C81.6226 28.824 81.1712 29.0334 80.8818 29.3722C80.5911 29.7005 80.4754 30.0921 80.5346 30.5469C80.5869 30.9489 80.7731 31.2634 81.0931 31.4907C81.4223 31.706 81.9047 31.8583 82.5402 31.9477L83.706 32.1025C85.9078 32.4074 87.1271 33.4696 87.364 35.2889C87.5003 36.3361 87.2237 37.2272 86.5342 37.9624C85.8433 38.687 84.8791 39.1299 83.6415 39.291ZM94.0544 37.7417L90.1513 38.2498L88.6021 26.3502L92.5051 25.8421C94.3033 25.608 95.8208 25.9859 97.0576 26.9758C98.2944 27.9658 99.0216 29.2964 99.2392 30.9676C99.4609 32.6705 99.1021 34.1694 98.1627 35.4642C97.222 36.7484 95.8525 37.5076 94.0544 37.7417ZM90.9436 27.8525L92.0301 36.1981L93.7754 35.9709C94.9389 35.8194 95.8227 35.2956 96.4267 34.3994C97.0294 33.4927 97.2529 32.4417 97.0973 31.2465C96.9458 30.0829 96.4641 29.1507 95.6521 28.4496C94.8401 27.7486 93.8524 27.4738 92.6889 27.6253L90.9436 27.8525ZM106.498 36.1215L104.388 36.3963L103.07 26.2737L99.4209 26.7488L99.1896 24.9718L108.598 23.7469L108.83 25.5239L105.18 25.999L106.498 36.1215Z" fill="white"/>
<path d="M72.5279 40.7379C71.1211 40.9211 69.9223 40.6361 68.9315 39.8831C67.9512 39.1286 67.3784 38.1168 67.2132 36.8475L66.2258 29.2635L68.3518 28.9867L69.3413 36.5866C69.4418 37.3587 69.7592 37.9789 70.2935 38.4472C70.8369 38.9035 71.5053 39.08 72.2986 38.9768C73.1342 38.868 73.7616 38.5227 74.1807 37.9411C74.609 37.3475 74.7728 36.6646 74.6723 35.8925L73.6828 28.2926L75.6344 28.0386L76.6218 35.6226C76.787 36.8918 76.4924 38.0166 75.738 38.9969C74.9836 39.9772 73.9136 40.5575 72.5279 40.7379ZM83.6415 39.291C82.6155 39.4246 81.7167 39.3372 80.9451 39.0289C80.1827 38.7086 79.6293 38.259 79.285 37.6799L79.1363 36.5376L80.7388 36.3289C80.97 36.7829 81.3157 37.1251 81.776 37.3556C82.2455 37.5742 82.8028 37.6414 83.4481 37.5574C84.0616 37.4776 84.544 37.2588 84.8954 36.9011C85.2469 36.5434 85.3895 36.1107 85.3234 35.603C85.2656 35.1587 85.0654 34.819 84.7229 34.584C84.3789 34.3383 83.8568 34.1697 83.1564 34.078L82.1735 33.9639C79.9574 33.7146 78.7344 32.7067 78.5044 30.9403C78.3681 29.8931 78.6348 29.0086 79.3045 28.2868C79.977 27.5861 80.9109 27.158 82.1061 27.0024C83.1004 26.8729 83.939 26.952 84.6218 27.2396C85.3033 27.5166 85.7805 27.96 86.0535 28.5698L86.2023 29.7122L84.5839 29.9229C84.1822 28.9856 83.3996 28.5927 82.2361 28.7442C81.6226 28.824 81.1712 29.0334 80.8818 29.3722C80.5911 29.7005 80.4754 30.0921 80.5346 30.5469C80.5869 30.9489 80.7731 31.2634 81.0931 31.4907C81.4223 31.706 81.9047 31.8583 82.5402 31.9477L83.706 32.1025C85.9078 32.4074 87.1271 33.4696 87.364 35.2889C87.5003 36.3361 87.2237 37.2272 86.5342 37.9624C85.8433 38.687 84.8791 39.1299 83.6415 39.291ZM94.0544 37.7417L90.1513 38.2498L88.6021 26.3502L92.5051 25.8421C94.3033 25.608 95.8208 25.9859 97.0576 26.9758C98.2944 27.9658 99.0216 29.2964 99.2392 30.9676C99.4609 32.6705 99.1021 34.1694 98.1627 35.4642C97.222 36.7484 95.8525 37.5076 94.0544 37.7417ZM90.9436 27.8525L92.0301 36.1981L93.7754 35.9709C94.9389 35.8194 95.8227 35.2956 96.4267 34.3994C97.0294 33.4927 97.2529 32.4417 97.0973 31.2465C96.9458 30.0829 96.4641 29.1507 95.6521 28.4496C94.8401 27.7486 93.8524 27.4738 92.6889 27.6253L90.9436 27.8525ZM106.498 36.1215L104.388 36.3963L103.07 26.2737L99.4209 26.7488L99.1896 24.9718L108.598 23.7469L108.83 25.5239L105.18 25.999L106.498 36.1215Z" fill="#DDDDDD"/>
</g>
<defs>
<filter id="filter0_bd_288_1830" x="-105.992" y="-113.771" width="354.373" height="294.858" filterUnits="userSpaceOnUse" color-interpolation-filters="sRGB">
<feFlood flood-opacity="0" result="BackgroundImageFix"/>
<feGaussianBlur in="BackgroundImageFix" stdDeviation="60"/>
<feComposite in2="SourceAlpha" operator="in" result="effect1_backgroundBlur_288_1830"/>
<feColorMatrix in="SourceAlpha" type="matrix" values="0 0 0 0 0 0 0 0 0 0 0 0 0 0 0 0 0 0 127 0" result="hardAlpha"/>
<feOffset dy="8"/>
<feGaussianBlur stdDeviation="8"/>
<feColorMatrix type="matrix" values="0 0 0 0 0.168627 0 0 0 0 0.2 0 0 0 0 0.219608 0 0 0 0.08 0"/>
<feBlend mode="normal" in2="effect1_backgroundBlur_288_1830" result="effect2_dropShadow_288_1830"/>
<feBlend mode="normal" in="SourceGraphic" in2="effect2_dropShadow_288_1830" result="shape"/>
</filter>
<clipPath id="clip0_288_1830">
<rect width="25" height="25" fill="white" transform="translate(30.9072 26.2983) rotate(-7.41783)"/>
</clipPath>
</defs>
</svg>
