<svg width="147" height="82" viewBox="0 0 147 82" fill="none" xmlns="http://www.w3.org/2000/svg">
<g filter="url(#filter0_bd_288_1839)">
<rect x="19.2024" y="7" width="114" height="41" rx="20.5" transform="rotate(5.88295 19.2024 7)" fill="#251F1F"/>
<path d="M36.5113 37.4839L36.5277 37.5038C36.5277 37.5038 32.6457 37.6932 32.4895 39.2096C32.338 40.6793 35.5575 41.8598 39.0042 42.2149C42.8495 42.6111 44.6693 42.6572 44.6693 42.6572C53.9398 43.7539 57.4162 36.0018 57.6855 33.389C58.2889 29.3725 57.0292 25.7298 54.2239 23.0596C53.447 22.3201 52.4816 20.6518 50.5017 19.3989C48.9389 18.4099 47.1192 17.9187 45.5995 17.7621C39.1985 17.1026 33.7332 22.0799 33.1395 27.8421C32.6347 32.7414 35.3448 36.0568 36.5113 37.4839Z" fill="black"/>
<ellipse cx="46.3952" cy="31.4242" rx="10.3948" ry="10.3424" transform="rotate(5.88295 46.3952 31.4242)" fill="white"/>
<path fill-rule="evenodd" clip-rule="evenodd" d="M34.6171 25.9197L35.9073 26.7364C38.1309 21.9438 43.7454 18.2785 50.7067 20.8584C44.1427 16.0326 36.1998 20.4481 34.6171 25.9197ZM34.307 27.0902L34.1014 28.6251L35.1764 29.2309C35.2317 28.6944 35.317 28.3259 35.5292 27.8763L34.307 27.0902ZM34.9714 30.5301C34.8753 31.4632 34.8951 31.9604 35.0918 33.0416C34.5711 32.1156 34.149 31.1526 34.1916 30.0489L34.9714 30.5301Z" fill="#ED1C78"/>
<path d="M55.3728 34.4474L55.7934 30.3649L54.6445 30.2465L54.4883 31.7629L53.0346 31.6131L53.1908 30.0967L52.0654 29.9807L51.6447 34.0633L52.7702 34.1792L52.9312 32.6162L54.3849 32.766L54.2239 34.329L55.3728 34.4474Z" fill="black"/>
<path d="M37.4814 28.478L38.4207 32.7007L39.4524 32.807L40.4851 30.6029L41.0468 32.9713L42.0784 33.0776L43.859 29.1352L42.6866 29.0144L41.7359 31.2269L41.1626 28.8573L40.2013 28.7583L39.1637 31.009L38.7007 28.6037L37.4814 28.478Z" fill="black"/>
<path d="M44.3045 29.1811L43.8838 33.2636L47.1898 33.6042L47.2908 32.6244L45.1102 32.3997L45.1775 31.7465L47.1236 31.9471L47.215 31.0606L45.2689 30.8601L45.3314 30.2535L47.5119 30.4782L47.6105 29.5217L44.3045 29.1811Z" fill="black"/>
<path d="M47.8847 30.5402L47.9856 29.5604L51.5496 29.9276L51.4486 30.9074L50.2294 30.7818L49.9097 33.8845L48.7842 33.7685L49.1039 30.6658L47.8847 30.5402Z" fill="black"/>
<path d="M77.5558 40.6581L75.5823 40.4547L74.0631 32.095L70.8712 39.9693L68.9136 39.7676L66.9725 28.7908L67.1037 27.5175L68.934 27.7061L70.3578 36.5225L73.6769 28.1948L75.3639 28.3687L76.8992 37.1965L80.1227 28.859L81.8416 29.0361L81.7268 30.1502L77.5558 40.6581ZM89.7825 41.9179L82.6522 41.1832L83.8822 29.2464L91.0124 29.9811L90.8288 31.7636L85.8153 31.2471L85.489 34.4143L89.9931 34.8784L89.816 36.5973L85.3119 36.1332L84.9527 39.6187L89.9662 40.1353L89.7825 41.9179ZM96.952 42.6566L94.8352 42.4385L95.8815 32.2843L92.2209 31.9071L92.4046 30.1245L101.843 31.097L101.659 32.8796L97.9983 32.5024L96.952 42.6566ZM104.695 43.4544L102.578 43.2363L103.808 31.2995L105.925 31.5176L105.418 36.4356L110.702 36.9801L111.209 32.0621L113.341 32.2818L112.112 44.2186L109.979 43.9989L110.518 38.7626L105.234 38.2182L104.695 43.4544Z" fill="white"/>
<path d="M77.5558 40.6581L75.5823 40.4547L74.0631 32.095L70.8712 39.9693L68.9136 39.7676L66.9725 28.7908L67.1037 27.5175L68.934 27.7061L70.3578 36.5225L73.6769 28.1948L75.3639 28.3687L76.8992 37.1965L80.1227 28.859L81.8416 29.0361L81.7268 30.1502L77.5558 40.6581ZM89.7825 41.9179L82.6522 41.1832L83.8822 29.2464L91.0124 29.9811L90.8288 31.7636L85.8153 31.2471L85.489 34.4143L89.9931 34.8784L89.816 36.5973L85.3119 36.1332L84.9527 39.6187L89.9662 40.1353L89.7825 41.9179ZM96.952 42.6566L94.8352 42.4385L95.8815 32.2843L92.2209 31.9071L92.4046 30.1245L101.843 31.097L101.659 32.8796L97.9983 32.5024L96.952 42.6566ZM104.695 43.4544L102.578 43.2363L103.808 31.2995L105.925 31.5176L105.418 36.4356L110.702 36.9801L111.209 32.0621L113.341 32.2818L112.112 44.2186L109.979 43.9989L110.518 38.7626L105.234 38.2182L104.695 43.4544Z" fill="#DDDDDD"/>
</g>
<defs>
<filter id="filter0_bd_288_1839" x="-105" y="-113" width="357.602" height="292.469" filterUnits="userSpaceOnUse" color-interpolation-filters="sRGB">
<feFlood flood-opacity="0" result="BackgroundImageFix"/>
<feGaussianBlur in="BackgroundImageFix" stdDeviation="60"/>
<feComposite in2="SourceAlpha" operator="in" result="effect1_backgroundBlur_288_1839"/>
<feColorMatrix in="SourceAlpha" type="matrix" values="0 0 0 0 0 0 0 0 0 0 0 0 0 0 0 0 0 0 127 0" result="hardAlpha"/>
<feOffset dy="8"/>
<feGaussianBlur stdDeviation="8"/>
<feColorMatrix type="matrix" values="0 0 0 0 0.168627 0 0 0 0 0.2 0 0 0 0 0.219608 0 0 0 0.08 0"/>
<feBlend mode="normal" in2="effect1_backgroundBlur_288_1839" result="effect2_dropShadow_288_1839"/>
<feBlend mode="normal" in="SourceGraphic" in2="effect2_dropShadow_288_1839" result="shape"/>
</filter>
</defs>
</svg>
