<svg width="146" height="88" viewBox="0 0 146 88" fill="none" xmlns="http://www.w3.org/2000/svg">
<g filter="url(#filter0_bd_288_1842)">
<rect x="13.5088" y="26.5078" width="114" height="41" rx="20.5" transform="rotate(-10.7386 13.5088 26.5078)" fill="#251F1F"/>
<g clip-path="url(#clip0_288_1842)">
<path d="M47.6586 53.6193C54.4412 52.333 58.8969 45.7917 57.6105 39.0091C56.3242 32.2264 49.783 27.7708 43.0003 29.0571C36.2177 30.3434 31.762 36.8847 33.0484 43.6673C34.3347 50.45 40.8759 54.9056 47.6586 53.6193Z" fill="#201A2D"/>
<path d="M49.4642 35.5292L49.1003 36.0635C50.3942 37.0322 51.2788 38.4501 51.58 40.0382C51.8812 41.6263 51.5772 43.2696 50.7277 44.6448L51.262 45.0088C52.2087 43.49 52.5491 41.6706 52.2157 39.9122C51.8822 38.1539 50.8993 36.5855 49.4623 35.5187L49.4642 35.5292V35.5292ZM40.0265 37.3594C40.9952 36.0655 42.4131 35.1809 44.0012 34.8797C45.5893 34.5785 47.2326 34.8825 48.6078 35.732L48.9718 35.1977C47.453 34.251 45.6335 33.9106 43.8752 34.244C42.1169 34.5775 40.5484 35.5604 39.4817 36.9975L40.0265 37.3594V37.3594ZM41.3119 46.4352C40.0193 45.4665 39.1356 44.0494 38.8347 42.4624C38.5337 40.8753 38.8371 39.2331 39.6853 37.8584L39.151 37.4944C38.2043 39.0132 37.8639 40.8327 38.1974 42.591C38.5308 44.3493 39.5138 45.9177 40.9508 46.9845L41.3119 46.4352ZM50.3866 45.1438C49.4178 46.4378 48 47.3223 46.4119 47.6235C44.8238 47.9247 43.1805 47.6207 41.8052 46.7712L41.4413 47.3056C42.9601 48.2522 44.7795 48.5927 46.5378 48.2592C48.2962 47.9257 49.8646 46.9428 50.9313 45.5058L50.3866 45.1438ZM47.7566 39.217C47.489 38.2969 46.621 38.1358 45.5803 38.2339L45.3356 36.9435L44.5451 37.0934L44.7853 38.3599L44.1535 38.4797L43.9133 37.2132L43.1288 37.362L43.3753 38.6614L41.7719 38.9655L41.9323 39.8114C41.9323 39.8114 42.5142 39.6902 42.5072 39.7023C42.6103 39.6708 42.7216 39.6805 42.8177 39.7294C42.9137 39.7783 42.9871 39.8626 43.0222 39.9645L43.6968 43.5216C43.7016 43.559 43.6988 43.5969 43.6886 43.6332C43.6784 43.6695 43.6611 43.7034 43.6376 43.7329C43.6147 43.7627 43.5861 43.7876 43.5533 43.8061C43.5206 43.8245 43.4844 43.8362 43.4471 43.8403C43.4593 43.8473 42.8722 43.9494 42.8722 43.9494L42.9016 44.9224L44.4901 44.6212L44.7405 45.9416L45.5309 45.7917L45.2842 44.4907L45.916 44.3709L46.1616 45.6659L46.9535 45.5157L46.7059 44.2102C48.026 43.8761 48.8947 43.3702 48.7744 42.098C48.678 41.074 48.1197 40.7146 47.3293 40.6769C47.7461 40.3636 47.951 39.8905 47.7566 39.217V39.217ZM47.182 42.2387C47.3682 43.2208 45.6642 43.4276 45.1282 43.5293L44.7977 41.7867C45.334 41.6865 46.9875 41.2132 47.182 42.2387ZM46.3495 39.853C46.5199 40.7513 45.0949 40.9083 44.6488 40.9929L44.3484 39.409C44.7945 39.3244 46.1721 38.9173 46.3495 39.853Z" fill="white"/>
<path d="M46.8508 49.6788C42.2192 50.5564 37.7536 47.5133 36.8753 42.8818C35.997 38.251 39.0399 33.784 43.6706 32.9057C48.3021 32.0274 52.7689 35.0687 53.648 39.7C53.8571 40.8016 53.8472 41.9335 53.6187 43.0312C53.3903 44.1289 52.9478 45.1709 52.3166 46.0975C51.6854 47.0242 50.8778 47.8174 49.94 48.4319C49.0021 49.0464 47.9524 49.4701 46.8508 49.6788V49.6788ZM43.7939 33.5599C39.5275 34.3722 36.7275 38.4886 37.5383 42.7552C38.3491 47.0219 42.465 49.8235 46.7312 49.0144C50.9981 48.2052 53.8017 44.0912 52.994 39.824C52.8018 38.8084 52.4113 37.8405 51.8448 36.9759C51.2783 36.1112 50.5469 35.3667 49.6924 34.7849C48.8379 34.2031 47.8772 33.7955 46.8651 33.5853C45.8529 33.3751 44.8093 33.3664 43.7939 33.5599V33.5599Z" fill="white"/>
</g>
<path d="M79.1747 42.0445L77.2254 42.4142L73.3785 34.8383L72.5724 43.2966L70.6388 43.6633L65.6389 33.7005L65.4004 32.4429L67.2082 32.1L71.0945 40.1407L71.8927 31.2116L73.559 30.8956L77.5553 38.9154L78.2592 30.0042L79.9569 29.6822L80.1656 30.7826L79.1747 42.0445ZM88.437 40.2879L84.2083 41.0898L81.9724 29.3L86.1381 28.51C87.27 28.2953 88.2206 28.4136 88.9902 28.8648C89.7682 29.3035 90.2467 29.9944 90.4256 30.9376C90.5329 31.5035 90.4911 32.0271 90.3001 32.5085C90.1091 32.9898 89.7914 33.3758 89.3471 33.6663C90.0137 33.7462 90.5656 33.9944 91.0028 34.4109C91.4381 34.8169 91.7184 35.35 91.8436 36.0102C92.0463 37.0792 91.8467 38.0018 91.2448 38.7783C90.641 39.5442 89.705 40.0474 88.437 40.2879ZM84.3192 30.5974L84.9274 33.8043L86.8295 33.4435C87.4059 33.3342 87.8287 33.102 88.0979 32.747C88.3776 32.39 88.4718 31.9704 88.3804 31.4883C88.2929 31.0272 88.0579 30.6755 87.6754 30.4332C87.3034 30.1889 86.8449 30.1184 86.2999 30.2218L84.3192 30.5974ZM85.2345 35.4234L85.9172 39.0232L88.0236 38.6238C88.6629 38.5025 89.1322 38.229 89.4314 37.8031C89.7411 37.3752 89.8462 36.8993 89.7469 36.3753C89.6455 35.8408 89.3869 35.4502 88.9709 35.2033C88.5655 34.9545 88.0274 34.8937 87.3567 35.0209L85.2345 35.4234ZM99.2378 38.2395L97.1471 38.636L95.245 28.6068L91.6295 29.2925L91.2956 27.5318L100.617 25.764L100.951 27.5246L97.3358 28.2103L99.2378 38.2395ZM109.494 36.4897C107.681 36.8336 106.153 36.5317 104.909 35.5842C103.666 34.6367 102.874 33.2669 102.534 31.4748C102.2 29.7142 102.46 28.1666 103.315 26.8321C104.167 25.487 105.458 24.6506 107.187 24.3226C107.805 24.2054 108.384 24.1662 108.923 24.205C109.471 24.2314 109.914 24.3048 110.252 24.4254C110.6 24.5439 110.905 24.6923 111.167 24.8707C111.437 25.0365 111.628 25.1849 111.74 25.3157C111.862 25.4445 111.941 25.5489 111.978 25.6287L112.193 26.7606L110.589 27.0647C110.567 27.0038 110.521 26.9311 110.45 26.8467C110.38 26.7624 110.262 26.6545 110.096 26.5231C109.93 26.3918 109.741 26.2811 109.528 26.1911C109.314 26.0907 109.03 26.0251 108.676 25.9943C108.334 25.9616 107.958 25.984 107.549 26.0616C106.407 26.2782 105.576 26.8484 105.056 27.772C104.537 28.6957 104.398 29.7968 104.641 31.0753C104.881 32.3434 105.414 33.3226 106.24 34.0128C107.066 34.703 108.05 34.9398 109.192 34.7232C109.59 34.6476 109.948 34.5309 110.265 34.373C110.581 34.2046 110.825 34.0334 110.999 33.8594C111.172 33.6854 111.317 33.5059 111.434 33.3209C111.549 33.1254 111.623 32.9702 111.655 32.8555C111.698 32.7388 111.72 32.6532 111.72 32.5988L113.324 32.2947L113.538 33.4266C113.522 33.5708 113.446 33.7698 113.31 34.0237C113.182 34.2651 112.976 34.5538 112.692 34.8899C112.417 35.2135 111.999 35.5262 111.437 35.8282C110.876 36.1301 110.228 36.3506 109.494 36.4897Z" fill="white"/>
<path d="M79.1747 42.0445L77.2254 42.4142L73.3785 34.8383L72.5724 43.2966L70.6388 43.6633L65.6389 33.7005L65.4004 32.4429L67.2082 32.1L71.0945 40.1407L71.8927 31.2116L73.559 30.8956L77.5553 38.9154L78.2592 30.0042L79.9569 29.6822L80.1656 30.7826L79.1747 42.0445ZM88.437 40.2879L84.2083 41.0898L81.9724 29.3L86.1381 28.51C87.27 28.2953 88.2206 28.4136 88.9902 28.8648C89.7682 29.3035 90.2467 29.9944 90.4256 30.9376C90.5329 31.5035 90.4911 32.0271 90.3001 32.5085C90.1091 32.9898 89.7914 33.3758 89.3471 33.6663C90.0137 33.7462 90.5656 33.9944 91.0028 34.4109C91.4381 34.8169 91.7184 35.35 91.8436 36.0102C92.0463 37.0792 91.8467 38.0018 91.2448 38.7783C90.641 39.5442 89.705 40.0474 88.437 40.2879ZM84.3192 30.5974L84.9274 33.8043L86.8295 33.4435C87.4059 33.3342 87.8287 33.102 88.0979 32.747C88.3776 32.39 88.4718 31.9704 88.3804 31.4883C88.2929 31.0272 88.0579 30.6755 87.6754 30.4332C87.3034 30.1889 86.8449 30.1184 86.2999 30.2218L84.3192 30.5974ZM85.2345 35.4234L85.9172 39.0232L88.0236 38.6238C88.6629 38.5025 89.1322 38.229 89.4314 37.8031C89.7411 37.3752 89.8462 36.8993 89.7469 36.3753C89.6455 35.8408 89.3869 35.4502 88.9709 35.2033C88.5655 34.9545 88.0274 34.8937 87.3567 35.0209L85.2345 35.4234ZM99.2378 38.2395L97.1471 38.636L95.245 28.6068L91.6295 29.2925L91.2956 27.5318L100.617 25.764L100.951 27.5246L97.3358 28.2103L99.2378 38.2395ZM109.494 36.4897C107.681 36.8336 106.153 36.5317 104.909 35.5842C103.666 34.6367 102.874 33.2669 102.534 31.4748C102.2 29.7142 102.46 28.1666 103.315 26.8321C104.167 25.487 105.458 24.6506 107.187 24.3226C107.805 24.2054 108.384 24.1662 108.923 24.205C109.471 24.2314 109.914 24.3048 110.252 24.4254C110.6 24.5439 110.905 24.6923 111.167 24.8707C111.437 25.0365 111.628 25.1849 111.74 25.3157C111.862 25.4445 111.941 25.5489 111.978 25.6287L112.193 26.7606L110.589 27.0647C110.567 27.0038 110.521 26.9311 110.45 26.8467C110.38 26.7624 110.262 26.6545 110.096 26.5231C109.93 26.3918 109.741 26.2811 109.528 26.1911C109.314 26.0907 109.03 26.0251 108.676 25.9943C108.334 25.9616 107.958 25.984 107.549 26.0616C106.407 26.2782 105.576 26.8484 105.056 27.772C104.537 28.6957 104.398 29.7968 104.641 31.0753C104.881 32.3434 105.414 33.3226 106.24 34.0128C107.066 34.703 108.05 34.9398 109.192 34.7232C109.59 34.6476 109.948 34.5309 110.265 34.373C110.581 34.2046 110.825 34.0334 110.999 33.8594C111.172 33.6854 111.317 33.5059 111.434 33.3209C111.549 33.1254 111.623 32.9702 111.655 32.8555C111.698 32.7388 111.72 32.6532 111.72 32.5988L113.324 32.2947L113.538 33.4266C113.522 33.5708 113.446 33.7698 113.31 34.0237C113.182 34.2651 112.976 34.5538 112.692 34.8899C112.417 35.2135 111.999 35.5262 111.437 35.8282C110.876 36.1301 110.228 36.3506 109.494 36.4897Z" fill="#DDDDDD"/>
</g>
<defs>
<filter id="filter0_bd_288_1842" x="-106.491" y="-114.734" width="359.643" height="301.523" filterUnits="userSpaceOnUse" color-interpolation-filters="sRGB">
<feFlood flood-opacity="0" result="BackgroundImageFix"/>
<feGaussianBlur in="BackgroundImageFix" stdDeviation="60"/>
<feComposite in2="SourceAlpha" operator="in" result="effect1_backgroundBlur_288_1842"/>
<feColorMatrix in="SourceAlpha" type="matrix" values="0 0 0 0 0 0 0 0 0 0 0 0 0 0 0 0 0 0 127 0" result="hardAlpha"/>
<feOffset dy="8"/>
<feGaussianBlur stdDeviation="8"/>
<feColorMatrix type="matrix" values="0 0 0 0 0.168627 0 0 0 0 0.2 0 0 0 0 0.219608 0 0 0 0.08 0"/>
<feBlend mode="normal" in2="effect1_backgroundBlur_288_1842" result="effect2_dropShadow_288_1842"/>
<feBlend mode="normal" in="SourceGraphic" in2="effect2_dropShadow_288_1842" result="shape"/>
</filter>
<clipPath id="clip0_288_1842">
<rect width="25" height="25" fill="white" transform="translate(30.7192 31.3862) rotate(-10.7386)"/>
</clipPath>
</defs>
</svg>
