<svg width="20" height="16" viewBox="0 0 20 16" fill="none" xmlns="http://www.w3.org/2000/svg">
<path d="M16.9309 1.74364C15.6559 1.16864 14.2893 0.743637 12.8601 0.50197C12.8474 0.499527 12.8342 0.501101 12.8224 0.506476C12.8106 0.511851 12.8008 0.52076 12.7943 0.53197C12.6193 0.83947 12.4243 1.2403 12.2876 1.55697C10.7719 1.3305 9.23086 1.3305 7.71511 1.55697C7.56289 1.20602 7.39123 0.863824 7.20094 0.53197C7.19449 0.520622 7.18474 0.511512 7.17297 0.505854C7.16121 0.500196 7.148 0.498259 7.13511 0.500303C5.70678 0.74197 4.34011 1.16697 3.06428 1.7428C3.0533 1.74741 3.044 1.75526 3.03761 1.7653C0.444277 5.5778 -0.266556 9.29614 0.0826106 12.9678C0.0835822 12.9768 0.0863735 12.9855 0.0908147 12.9934C0.0952559 13.0013 0.101254 13.0081 0.108444 13.0136C1.6221 14.1157 3.31039 14.9552 5.10261 15.497C5.1151 15.5008 5.12847 15.5008 5.14095 15.4969C5.15344 15.4931 5.16447 15.4855 5.17261 15.4753C5.55827 14.9595 5.90002 14.4123 6.19428 13.8395C6.19836 13.8316 6.20072 13.823 6.20118 13.8142C6.20164 13.8054 6.20021 13.7966 6.19697 13.7883C6.19373 13.7801 6.18876 13.7727 6.1824 13.7666C6.17604 13.7604 6.16844 13.7557 6.16011 13.7528C5.62178 13.5501 5.10018 13.3054 4.60011 13.0211C4.59113 13.016 4.58355 13.0087 4.57807 13C4.5726 12.9912 4.56938 12.9812 4.56872 12.9708C4.56806 12.9605 4.56997 12.9502 4.57429 12.9408C4.5786 12.9314 4.58519 12.9232 4.59344 12.917C4.69844 12.8395 4.80344 12.7586 4.90344 12.6778C4.91245 12.6705 4.92329 12.6659 4.93476 12.6644C4.94624 12.663 4.9579 12.6647 4.96844 12.6695C8.24094 14.1395 11.7851 14.1395 15.0193 12.6695C15.0299 12.6644 15.0416 12.6625 15.0533 12.6638C15.0649 12.6651 15.0759 12.6697 15.0851 12.677C15.1851 12.7586 15.2893 12.8395 15.3951 12.917C15.4034 12.9231 15.4101 12.9311 15.4146 12.9405C15.419 12.9498 15.4211 12.9601 15.4206 12.9704C15.4201 12.9807 15.4171 12.9908 15.4118 12.9996C15.4064 13.0085 15.399 13.0159 15.3901 13.0211C14.8918 13.3078 14.3734 13.5503 13.8293 13.752C13.8209 13.755 13.8133 13.7598 13.8069 13.766C13.8006 13.7722 13.7956 13.7797 13.7924 13.788C13.7892 13.7963 13.7877 13.8051 13.7882 13.814C13.7887 13.8229 13.791 13.8316 13.7951 13.8395C14.0951 14.412 14.4384 14.957 14.8159 15.4745C14.8238 15.4851 14.8347 15.493 14.8473 15.4972C14.8598 15.5014 14.8733 15.5016 14.8859 15.4978C16.6812 14.9575 18.3723 14.1176 19.8876 13.0136C19.895 13.0085 19.9012 13.0018 19.9058 12.994C19.9104 12.9863 19.9133 12.9776 19.9143 12.9686C20.3309 8.72364 19.2159 5.0353 16.9568 1.76697C16.9512 1.75635 16.9421 1.74807 16.9309 1.74364ZM6.68344 10.732C5.69844 10.732 4.88594 9.84114 4.88594 8.74864C4.88594 7.6553 5.68261 6.7653 6.68344 6.7653C7.69178 6.7653 8.49678 7.6628 8.48094 8.74864C8.48094 9.84197 7.68428 10.732 6.68344 10.732ZM13.3293 10.732C12.3434 10.732 11.5318 9.84114 11.5318 8.74864C11.5318 7.6553 12.3276 6.7653 13.3293 6.7653C14.3376 6.7653 15.1426 7.6628 15.1268 8.74864C15.1268 9.84197 14.3384 10.732 13.3293 10.732Z" fill="white"/>
</svg>
