<svg width="20" height="16" viewBox="0 0 20 16" fill="none" xmlns="http://www.w3.org/2000/svg">
<path d="M19.4608 2.13356C18.765 2.44189 18.0175 2.65023 17.2317 2.74439C18.0425 2.25922 18.6491 1.49561 18.9383 0.596059C18.1765 1.04855 17.3428 1.36705 16.4733 1.53773C15.8887 0.913446 15.1142 0.499664 14.2703 0.36062C13.4263 0.221577 12.5601 0.365052 11.806 0.768769C11.052 1.17249 10.4523 1.81386 10.1001 2.59331C9.74795 3.37276 9.66295 4.24668 9.85834 5.07939C8.31474 5.00189 6.80469 4.60068 5.42619 3.90181C4.04769 3.20294 2.83154 2.22203 1.85667 1.02273C1.52334 1.59773 1.33167 2.26439 1.33167 2.97439C1.3313 3.61355 1.4887 4.24293 1.7899 4.80667C2.09111 5.37041 2.5268 5.85109 3.05834 6.20606C2.4419 6.18644 1.83906 6.01988 1.3 5.72023V5.77022C1.29994 6.66668 1.61003 7.53554 2.17766 8.22939C2.74528 8.92324 3.53548 9.39933 4.41417 9.57689C3.84232 9.73166 3.24278 9.75445 2.66084 9.64356C2.90875 10.4149 3.39167 11.0894 4.04198 11.5727C4.69229 12.0559 5.47743 12.3237 6.2875 12.3386C4.91236 13.4181 3.21408 14.0036 1.46584 14.0011C1.15615 14.0011 0.846733 13.9831 0.539169 13.9469C2.31373 15.0879 4.37945 15.6934 6.48917 15.6911C13.6308 15.6911 17.535 9.77606 17.535 4.64606C17.535 4.47939 17.5308 4.31106 17.5233 4.14439C18.2827 3.5952 18.9383 2.91514 19.4592 2.13606L19.4608 2.13356Z" fill="white"/>
</svg>
