<svg width="73" height="73" viewBox="0 0 73 73" fill="none" xmlns="http://www.w3.org/2000/svg">
<g filter="url(#filter0_b_181_13)">
<path d="M24.5 15.5C24.5 20.4706 20.4706 24.5 15.5 24.5C10.5294 24.5 6.5 20.4706 6.5 15.5C6.5 10.5294 10.5294 6.5 15.5 6.5C20.4706 6.5 24.5 10.5294 24.5 15.5Z" fill="#D9D9D9" fill-opacity="0.01"/>
<path d="M24.5 15.5C24.5 20.4706 20.4706 24.5 15.5 24.5C10.5294 24.5 6.5 20.4706 6.5 15.5C6.5 10.5294 10.5294 6.5 15.5 6.5C20.4706 6.5 24.5 10.5294 24.5 15.5Z" stroke="#FF9F2E" stroke-width="3"/>
</g>
<path d="M66.5 15.5C66.5 20.4706 62.4706 24.5 57.5 24.5C52.5294 24.5 48.5 20.4706 48.5 15.5C48.5 10.5294 52.5294 6.5 57.5 6.5C62.4706 6.5 66.5 10.5294 66.5 15.5Z" fill="url(#paint0_linear_181_13)"/>
<path d="M24.5 57.5C24.5 62.4706 20.4706 66.5 15.5 66.5C10.5294 66.5 6.5 62.4706 6.5 57.5C6.5 52.5294 10.5294 48.5 15.5 48.5C20.4706 48.5 24.5 52.5294 24.5 57.5Z" fill="url(#paint1_linear_181_13)"/>
<g filter="url(#filter1_b_181_13)">
<path d="M66.5 57.5C66.5 62.4706 62.4706 66.5 57.5 66.5C52.5294 66.5 48.5 62.4706 48.5 57.5C48.5 52.5294 52.5294 48.5 57.5 48.5C62.4706 48.5 66.5 52.5294 66.5 57.5Z" fill="#D9D9D9" fill-opacity="0.01"/>
<path d="M66.5 57.5C66.5 62.4706 62.4706 66.5 57.5 66.5C52.5294 66.5 48.5 62.4706 48.5 57.5C48.5 52.5294 52.5294 48.5 57.5 48.5C62.4706 48.5 66.5 52.5294 66.5 57.5Z" stroke="#FF9F2E" stroke-width="3"/>
</g>
<path opacity="0.5" d="M24.5 57.5H48.5" stroke="#FF9F2E" stroke-width="1.5" stroke-linecap="round"/>
<path opacity="0.5" d="M24.5 15.5H48.5" stroke="#FF9F2E" stroke-width="3" stroke-linecap="round"/>
<path opacity="0.5" d="M57.5 48.5L57.5 24.5" stroke="#FF9F2E" stroke-width="3" stroke-linecap="round"/>
<path opacity="0.5" d="M15.5 48.5L15.5 24.5" stroke="#FF9F2E" stroke-width="3" stroke-linecap="round"/>
<defs>
<filter id="filter0_b_181_13" x="-1" y="-1" width="33" height="33" filterUnits="userSpaceOnUse" color-interpolation-filters="sRGB">
<feFlood flood-opacity="0" result="BackgroundImageFix"/>
<feGaussianBlur in="BackgroundImageFix" stdDeviation="3"/>
<feComposite in2="SourceAlpha" operator="in" result="effect1_backgroundBlur_181_13"/>
<feBlend mode="normal" in="SourceGraphic" in2="effect1_backgroundBlur_181_13" result="shape"/>
</filter>
<filter id="filter1_b_181_13" x="41" y="41" width="33" height="33" filterUnits="userSpaceOnUse" color-interpolation-filters="sRGB">
<feFlood flood-opacity="0" result="BackgroundImageFix"/>
<feGaussianBlur in="BackgroundImageFix" stdDeviation="3"/>
<feComposite in2="SourceAlpha" operator="in" result="effect1_backgroundBlur_181_13"/>
<feBlend mode="normal" in="SourceGraphic" in2="effect1_backgroundBlur_181_13" result="shape"/>
</filter>
<linearGradient id="paint0_linear_181_13" x1="64.6667" y1="7.18182" x2="52.9371" y2="26.759" gradientUnits="userSpaceOnUse">
<stop stop-color="#FFC700"/>
<stop offset="1" stop-color="#E43086"/>
</linearGradient>
<linearGradient id="paint1_linear_181_13" x1="22.6667" y1="49.1818" x2="10.9371" y2="68.759" gradientUnits="userSpaceOnUse">
<stop stop-color="#FFC700"/>
<stop offset="1" stop-color="#E43086"/>
</linearGradient>
</defs>
</svg>
