<svg width="73" height="73" viewBox="0 0 73 73" fill="none" xmlns="http://www.w3.org/2000/svg">
<path d="M18.5 24.5H30.5" stroke="#FF9F2E" stroke-width="3" stroke-linecap="round" stroke-linejoin="round"/>
<path d="M18.5 24.5H30.5" stroke="url(#paint0_linear_181_5)" stroke-width="3" stroke-linecap="round" stroke-linejoin="round"/>
<path d="M63 27.5H55.1923C49.8394 27.5 45.5 31.5294 45.5 36.5C45.5 41.4706 49.8394 45.5 55.1923 45.5H63C63.25 45.5 63.375 45.5 63.4805 45.4936C65.0984 45.3951 66.387 44.1985 66.4931 42.6962C66.5 42.5982 66.5 42.4821 66.5 42.25V30.75C66.5 30.5179 66.5 30.4018 66.4931 30.3038C66.387 28.8015 65.0984 27.6049 63.4805 27.5064C63.375 27.5 63.25 27.5 63 27.5Z" fill="url(#paint1_linear_181_5)"/>
<g opacity="0.4" filter="url(#filter0_b_181_5)">
<path d="M63.3951 27.5C63.1618 21.8831 62.4098 18.4392 59.9853 16.0147C56.4706 12.5 50.8137 12.5 39.5 12.5L30.5 12.5C19.1863 12.5 13.5294 12.5 10.0147 16.0147C6.5 19.5294 6.5 25.1863 6.5 36.5C6.5 47.8137 6.5 53.4706 10.0147 56.9853C13.5294 60.5 19.1863 60.5 30.5 60.5H39.5C50.8137 60.5 56.4706 60.5 59.9853 56.9853C62.4098 54.5608 63.1618 51.1169 63.3951 45.5" stroke="#FF9F2E" stroke-width="3"/>
</g>
<path d="M54.473 36.5H54.5" stroke="white" stroke-width="3" stroke-linecap="round" stroke-linejoin="round"/>
<defs>
<filter id="filter0_b_181_5" x="-1" y="5" width="71.8938" height="63" filterUnits="userSpaceOnUse" color-interpolation-filters="sRGB">
<feFlood flood-opacity="0" result="BackgroundImageFix"/>
<feGaussianBlur in="BackgroundImageFix" stdDeviation="3"/>
<feComposite in2="SourceAlpha" operator="in" result="effect1_backgroundBlur_181_5"/>
<feBlend mode="normal" in="SourceGraphic" in2="effect1_backgroundBlur_181_5" result="shape"/>
</filter>
<linearGradient id="paint0_linear_181_5" x1="33.0383" y1="24.0938" x2="32.3587" y2="28.3003" gradientUnits="userSpaceOnUse">
<stop stop-color="#FF9F2E"/>
<stop offset="1" stop-color="#E43086"/>
</linearGradient>
<linearGradient id="paint1_linear_181_5" x1="64.3611" y1="28.1818" x2="53.5496" y2="49.2344" gradientUnits="userSpaceOnUse">
<stop stop-color="#FFC700"/>
<stop offset="1" stop-color="#E43086"/>
</linearGradient>
</defs>
</svg>
