<svg width="29" height="30" viewBox="0 0 29 30" fill="none" xmlns="http://www.w3.org/2000/svg">
<path d="M28.975 14.5708C28.975 14.5708 29.6458 0.5 14.1813 0.5C0.505116 0.5 0.0778408 13.9976 0.0778408 13.9976C0.0778408 13.9976 -1.93386 29.5 14.4964 29.5C30.2549 29.5 28.975 14.5708 28.975 14.5708ZM9.85457 9.65406C12.7562 7.87887 16.4632 8.96385 17.8522 11.6334C18.1154 12.1393 18.1489 12.9182 17.9822 13.449C17.4066 15.2814 16.0475 16.3091 14.1821 16.7456C14.732 16.2748 15.1698 15.7409 15.3091 15.0032C15.3817 14.6536 15.3801 14.2927 15.3044 13.9437C15.2288 13.5948 15.0808 13.2656 14.87 12.9775C14.5394 12.5233 14.07 12.1891 13.5326 12.0254C12.9953 11.8616 12.4193 11.8772 11.8916 12.0698C10.7431 12.5059 10.114 13.5541 10.2274 14.8425C10.3328 16.0394 11.2409 16.815 12.94 17.1096C12.686 17.2441 12.4904 17.343 12.2991 17.4496C11.5207 17.8761 10.8434 18.4652 10.3132 19.1769C10.1407 19.4097 10.0222 19.4284 9.75957 19.2679C6.34361 17.1789 6.12413 11.9363 9.85457 9.65406ZM7.29786 22.562C6.7491 22.7012 6.21734 22.9075 5.65638 23.0914C5.93077 21.2402 8.09864 19.5353 9.93189 19.7298C9.40077 20.4614 9.09071 21.3301 9.03851 22.2328C8.42932 22.345 7.85524 22.4205 7.29786 22.562ZM18.9741 4.48722C19.5164 4.50715 20.0596 4.49891 20.6023 4.51176C20.7378 4.52071 20.8724 4.53946 21.0052 4.56789C20.8838 4.75424 20.7468 4.92994 20.5957 5.09309C20.4017 5.27387 20.1825 5.45063 19.903 5.17584C19.8358 5.10975 19.6769 5.12492 19.56 5.12338C19.0203 5.11629 18.48 5.09904 17.9412 5.11938C17.4737 5.13436 17.0077 5.18194 16.5468 5.26177C16.4604 5.27729 16.3312 5.56448 16.371 5.67038C16.4647 5.92029 16.6013 6.19589 16.8038 6.35573C17.552 6.94636 18.3478 7.47668 19.0994 8.06325C19.8298 8.63325 20.5097 9.25785 20.924 10.1177C21.4638 11.2381 21.4795 12.4129 21.2467 13.5929C20.8581 15.5627 19.8612 17.1948 18.247 18.3802C17.5966 18.8578 16.7912 19.1289 16.0462 19.472C15.391 19.7739 14.7166 20.0338 14.0598 20.3324C12.8758 20.8708 12.2103 22.1561 12.4061 23.4923C12.5857 24.7185 13.6615 25.7418 14.8938 25.953C16.372 26.2064 17.8973 25.2458 18.2589 23.7432C18.6655 22.0537 17.7476 20.5452 16.0293 20.088C15.9536 20.0678 15.8777 20.0488 15.7199 20.008C16.1795 19.8027 16.5765 19.6564 16.943 19.4547C17.5823 19.1028 18.2101 18.7303 18.8261 18.337C19.0073 18.2211 19.1052 18.2211 19.2597 18.3546C20.4414 19.3764 21.1464 20.6474 21.3441 22.2057C21.6712 24.7852 20.4502 27.1548 18.1472 28.3694C14.5841 30.2485 10.224 28.1097 9.43699 24.1594C8.76287 20.7758 11.1509 17.7065 14.0249 17.1139C15.261 16.8591 16.3913 16.3445 17.27 15.3926C17.8369 14.7783 18.1118 14.2513 18.2054 14.0135C18.3798 13.5679 18.4691 13.0934 18.4685 12.6149C18.4496 12.2008 18.3524 11.7941 18.1818 11.4164C17.8818 10.7325 16.7323 9.64449 16.4477 9.415L13.7411 7.29597C13.6456 7.21742 13.5382 7.22311 13.3053 7.23889C13.0288 7.25764 12.3218 7.29678 12.0167 7.21684C12.2635 7.03007 12.9363 6.75815 13.2252 6.5395C12.3481 5.94696 11.347 6.16097 10.4276 5.98404C10.6402 5.5881 11.6921 4.97967 12.2903 4.91191C12.2549 4.57781 12.2004 4.24599 12.1272 3.91808C12.0907 3.78355 11.9405 3.65314 11.8095 3.57632C11.4919 3.39007 11.1552 3.23637 10.7898 3.05116C11.1169 2.83975 11.4959 2.7225 11.8852 2.71229C12.254 2.69826 12.623 2.73421 12.9822 2.81916C13.6339 2.96808 14.1542 2.87087 14.6727 2.42786C14.2645 2.2635 13.8565 2.11335 13.4607 1.93576C13.0707 1.75798 12.6906 1.55926 12.3221 1.34045C13.3488 1.48308 14.342 1.86811 15.3919 1.72745C15.4008 1.67973 15.4097 1.63201 15.4187 1.58429C14.6338 1.4016 13.8489 1.21891 12.9799 1.01663C14.4338 0.883526 15.7873 0.861575 17.0689 1.48586C17.4296 1.66153 17.807 1.80694 18.1527 2.00759C18.3213 2.10545 18.4348 2.29834 18.5731 2.44833C18.683 2.56747 18.7712 2.72709 18.9062 2.79888C19.4185 3.07133 19.9825 3.08203 20.5571 3.06838C20.5613 3.00294 20.5654 2.94161 20.5697 2.87569C21.148 3.0564 21.7988 3.72326 21.7978 4.21028C20.861 4.21028 19.925 4.20669 18.989 4.21549C18.889 4.21643 18.7897 4.28949 18.69 4.32911C18.7847 4.38427 18.8775 4.48366 18.9741 4.48722Z" fill="#FF3535"/>
</svg>
